<svg width="143" height="132" viewBox="0 0 143 132" fill="none" xmlns="http://www.w3.org/2000/svg">
<path d="M17.3881 40.0986C19.3452 33.7273 26.0966 30.1488 32.468 32.1058L92.791 50.6347C99.3705 52.6556 103.73 58.8951 103.366 65.7683L102.702 78.2787L61.7401 68.5022L24.777 54.9754C18.7503 52.7698 15.5038 46.2334 17.3881 40.0986Z" fill="url(#paint0_linear_369_1590)"/>
<circle cx="89.2876" cy="86.8474" r="35.6453" transform="rotate(17.0749 89.2876 86.8474)" fill="url(#paint1_linear_369_1590)"/>
<circle cx="89.1457" cy="86.5791" r="17.8226" transform="rotate(17.0749 89.1457 86.5791)" fill="white"/>
<rect x="79.0879" y="26.649" width="11.166" height="17.1784" rx="5.583" transform="rotate(-13.9325 79.0879 26.649)" fill="url(#paint2_linear_369_1590)"/>
<rect width="11.166" height="17.1784" rx="5.583" transform="matrix(-0.668063 -0.744105 -0.744105 0.668063 130.787 42.2654)" fill="url(#paint3_linear_369_1590)"/>
<rect x="102.607" y="22.3929" width="11.166" height="17.1784" rx="5.583" transform="rotate(17.0749 102.607 22.3929)" fill="url(#paint4_linear_369_1590)"/>
<defs>
<linearGradient id="paint0_linear_369_1590" x1="65.269" y1="42.181" x2="57.577" y2="67.2234" gradientUnits="userSpaceOnUse">
<stop stop-color="#349AB0"/>
<stop offset="0.4375" stop-color="#95CF81"/>
<stop offset="1" stop-color="#049EDB"/>
</linearGradient>
<linearGradient id="paint1_linear_369_1590" x1="89.2876" y1="51.2022" x2="89.2876" y2="122.493" gradientUnits="userSpaceOnUse">
<stop stop-color="#349AB0"/>
<stop offset="0.4375" stop-color="#95CF81"/>
<stop offset="1" stop-color="#049EDB"/>
</linearGradient>
<linearGradient id="paint2_linear_369_1590" x1="84.6709" y1="26.649" x2="84.6709" y2="43.8274" gradientUnits="userSpaceOnUse">
<stop stop-color="#349AB0"/>
<stop offset="0.4375" stop-color="#95CF81"/>
<stop offset="1" stop-color="#049EDB"/>
</linearGradient>
<linearGradient id="paint3_linear_369_1590" x1="5.583" y1="0" x2="5.583" y2="17.1784" gradientUnits="userSpaceOnUse">
<stop stop-color="#349AB0"/>
<stop offset="0.4375" stop-color="#95CF81"/>
<stop offset="1" stop-color="#049EDB"/>
</linearGradient>
<linearGradient id="paint4_linear_369_1590" x1="108.19" y1="22.3929" x2="108.19" y2="39.5714" gradientUnits="userSpaceOnUse">
<stop stop-color="#349AB0"/>
<stop offset="0.4375" stop-color="#95CF81"/>
<stop offset="1" stop-color="#049EDB"/>
</linearGradient>
</defs>
</svg>
