<svg width="661" height="142" viewBox="0 0 661 142" fill="none" xmlns="http://www.w3.org/2000/svg">
<path d="M205.068 38.08L197.268 66H190.668L185.428 46.12L179.948 66L173.388 66.04L165.868 38.08H171.868L176.788 59.76L182.468 38.08H188.708L194.068 59.64L199.028 38.08H205.068ZM221.205 43.52C222.885 43.52 224.378 43.8933 225.685 44.64C226.992 45.36 228.005 46.44 228.725 47.88C229.472 49.2933 229.845 51 229.845 53V66H224.245V53.76C224.245 52 223.805 50.6533 222.925 49.72C222.045 48.76 220.845 48.28 219.325 48.28C217.778 48.28 216.552 48.76 215.645 49.72C214.765 50.6533 214.325 52 214.325 53.76V66H208.725V36.4H214.325V46.6C215.045 45.64 216.005 44.8933 217.205 44.36C218.405 43.8 219.738 43.52 221.205 43.52ZM238.01 41.2C237.023 41.2 236.197 40.8933 235.53 40.28C234.89 39.64 234.57 38.8533 234.57 37.92C234.57 36.9867 234.89 36.2133 235.53 35.6C236.197 34.96 237.023 34.64 238.01 34.64C238.997 34.64 239.81 34.96 240.45 35.6C241.117 36.2133 241.45 36.9867 241.45 37.92C241.45 38.8533 241.117 39.64 240.45 40.28C239.81 40.8933 238.997 41.2 238.01 41.2ZM240.77 43.84V66H235.17V43.84H240.77ZM254.783 66.36C252.97 66.36 251.343 66.04 249.903 65.4C248.463 64.7333 247.316 63.84 246.463 62.72C245.636 61.6 245.183 60.36 245.103 59H250.743C250.85 59.8533 251.263 60.56 251.983 61.12C252.73 61.68 253.65 61.96 254.743 61.96C255.81 61.96 256.636 61.7467 257.223 61.32C257.836 60.8933 258.143 60.3467 258.143 59.68C258.143 58.96 257.77 58.4267 257.023 58.08C256.303 57.7067 255.143 57.3067 253.543 56.88C251.89 56.48 250.53 56.0667 249.463 55.64C248.423 55.2133 247.516 54.56 246.743 53.68C245.996 52.8 245.623 51.6133 245.623 50.12C245.623 48.8933 245.97 47.7733 246.663 46.76C247.383 45.7467 248.396 44.9467 249.703 44.36C251.036 43.7733 252.596 43.48 254.383 43.48C257.023 43.48 259.13 44.1467 260.703 45.48C262.276 46.7867 263.143 48.56 263.303 50.8H257.943C257.863 49.92 257.49 49.2267 256.823 48.72C256.183 48.1867 255.316 47.92 254.223 47.92C253.21 47.92 252.423 48.1067 251.863 48.48C251.33 48.8533 251.063 49.3733 251.063 50.04C251.063 50.7867 251.436 51.36 252.183 51.76C252.93 52.1333 254.09 52.52 255.663 52.92C257.263 53.32 258.583 53.7333 259.623 54.16C260.663 54.5867 261.556 55.2533 262.303 56.16C263.076 57.04 263.476 58.2133 263.503 59.68C263.503 60.96 263.143 62.1067 262.423 63.12C261.73 64.1333 260.716 64.9333 259.383 65.52C258.076 66.08 256.543 66.36 254.783 66.36ZM274.62 48.44V59.16C274.62 59.9067 274.793 60.4533 275.14 60.8C275.513 61.12 276.127 61.28 276.98 61.28H279.58V66H276.06C271.34 66 268.98 63.7067 268.98 59.12V48.44H266.34V43.84H268.98V38.36H274.62V43.84H279.58V48.44H274.62ZM289.208 36.4V66H283.608V36.4H289.208ZM315.34 54.44C315.34 55.24 315.287 55.96 315.18 56.6H298.98C299.114 58.2 299.674 59.4533 300.66 60.36C301.647 61.2667 302.86 61.72 304.3 61.72C306.38 61.72 307.86 60.8267 308.74 59.04H314.78C314.14 61.1733 312.914 62.9333 311.1 64.32C309.287 65.68 307.06 66.36 304.42 66.36C302.287 66.36 300.367 65.8933 298.66 64.96C296.98 64 295.66 62.6533 294.7 60.92C293.767 59.1867 293.3 57.1867 293.3 54.92C293.3 52.6267 293.767 50.6133 294.7 48.88C295.634 47.1467 296.94 45.8133 298.62 44.88C300.3 43.9467 302.234 43.48 304.42 43.48C306.527 43.48 308.407 43.9333 310.06 44.84C311.74 45.7467 313.034 47.04 313.94 48.72C314.874 50.3733 315.34 52.28 315.34 54.44ZM309.54 52.84C309.514 51.4 308.994 50.2533 307.98 49.4C306.967 48.52 305.727 48.08 304.26 48.08C302.874 48.08 301.7 48.5067 300.74 49.36C299.807 50.1867 299.234 51.3467 299.02 52.84H309.54ZM335.268 51.68C336.841 51.9733 338.135 52.76 339.148 54.04C340.161 55.32 340.668 56.7867 340.668 58.44C340.668 59.9333 340.295 61.2533 339.548 62.4C338.828 63.52 337.775 64.4 336.388 65.04C335.001 65.68 333.361 66 331.468 66H319.428V38.08H330.948C332.841 38.08 334.468 38.3867 335.828 39C337.215 39.6133 338.255 40.4667 338.948 41.56C339.668 42.6533 340.028 43.8933 340.028 45.28C340.028 46.9067 339.588 48.2667 338.708 49.36C337.855 50.4533 336.708 51.2267 335.268 51.68ZM325.028 49.6H330.148C331.481 49.6 332.508 49.3067 333.228 48.72C333.948 48.1067 334.308 47.24 334.308 46.12C334.308 45 333.948 44.1333 333.228 43.52C332.508 42.9067 331.481 42.6 330.148 42.6H325.028V49.6ZM330.668 61.44C332.028 61.44 333.081 61.12 333.828 60.48C334.601 59.84 334.988 58.9333 334.988 57.76C334.988 56.56 334.588 55.6267 333.788 54.96C332.988 54.2667 331.908 53.92 330.548 53.92H325.028V61.44H330.668ZM350.731 36.4V66H345.131V36.4H350.731ZM366.104 66.36C363.971 66.36 362.051 65.8933 360.344 64.96C358.637 64 357.291 62.6533 356.304 60.92C355.344 59.1867 354.864 57.1867 354.864 54.92C354.864 52.6533 355.357 50.6533 356.344 48.92C357.357 47.1867 358.731 45.8533 360.464 44.92C362.197 43.96 364.131 43.48 366.264 43.48C368.397 43.48 370.331 43.96 372.064 44.92C373.797 45.8533 375.157 47.1867 376.144 48.92C377.157 50.6533 377.664 52.6533 377.664 54.92C377.664 57.1867 377.144 59.1867 376.104 60.92C375.091 62.6533 373.704 64 371.944 64.96C370.211 65.8933 368.264 66.36 366.104 66.36ZM366.104 61.48C367.117 61.48 368.064 61.24 368.944 60.76C369.851 60.2533 370.571 59.5067 371.104 58.52C371.637 57.5333 371.904 56.3333 371.904 54.92C371.904 52.8133 371.344 51.2 370.224 50.08C369.131 48.9333 367.784 48.36 366.184 48.36C364.584 48.36 363.237 48.9333 362.144 50.08C361.077 51.2 360.544 52.8133 360.544 54.92C360.544 57.0267 361.064 58.6533 362.104 59.8C363.171 60.92 364.504 61.48 366.104 61.48ZM412.492 43.84L406.012 66H399.972L395.932 50.52L391.892 66H385.812L379.292 43.84H384.972L388.892 60.72L393.132 43.84H399.052L403.212 60.68L407.132 43.84H412.492ZM418.362 41.2C417.375 41.2 416.548 40.8933 415.882 40.28C415.242 39.64 414.922 38.8533 414.922 37.92C414.922 36.9867 415.242 36.2133 415.882 35.6C416.548 34.96 417.375 34.64 418.362 34.64C419.348 34.64 420.162 34.96 420.802 35.6C421.468 36.2133 421.802 36.9867 421.802 37.92C421.802 38.8533 421.468 39.64 420.802 40.28C420.162 40.8933 419.348 41.2 418.362 41.2ZM421.122 43.84V66H415.522V43.84H421.122ZM438.935 43.52C441.575 43.52 443.708 44.36 445.335 46.04C446.961 47.6933 447.775 50.0133 447.775 53V66H442.175V53.76C442.175 52 441.735 50.6533 440.855 49.72C439.975 48.76 438.775 48.28 437.255 48.28C435.708 48.28 434.481 48.76 433.575 49.72C432.695 50.6533 432.255 52 432.255 53.76V66H426.655V43.84H432.255V46.6C433.001 45.64 433.948 44.8933 435.095 44.36C436.268 43.8 437.548 43.52 438.935 43.52ZM461.78 43.48C463.433 43.48 464.887 43.8133 466.14 44.48C467.393 45.12 468.38 45.96 469.1 47V43.84H474.74V66.16C474.74 68.2133 474.327 70.04 473.5 71.64C472.673 73.2667 471.433 74.5467 469.78 75.48C468.127 76.44 466.127 76.92 463.78 76.92C460.633 76.92 458.047 76.1867 456.02 74.72C454.02 73.2533 452.887 71.2533 452.62 68.72H458.18C458.473 69.7333 459.1 70.5333 460.06 71.12C461.047 71.7333 462.233 72.04 463.62 72.04C465.247 72.04 466.567 71.5467 467.58 70.56C468.593 69.6 469.1 68.1333 469.1 66.16V62.72C468.38 63.76 467.38 64.6267 466.1 65.32C464.847 66.0133 463.407 66.36 461.78 66.36C459.913 66.36 458.207 65.88 456.66 64.92C455.113 63.96 453.887 62.6133 452.98 60.88C452.1 59.12 451.66 57.1067 451.66 54.84C451.66 52.6 452.1 50.6133 452.98 48.88C453.887 47.1467 455.1 45.8133 456.62 44.88C458.167 43.9467 459.887 43.48 461.78 43.48ZM469.1 54.92C469.1 53.56 468.833 52.4 468.3 51.44C467.767 50.4533 467.047 49.7067 466.14 49.2C465.233 48.6667 464.26 48.4 463.22 48.4C462.18 48.4 461.22 48.6533 460.34 49.16C459.46 49.6667 458.74 50.4133 458.18 51.4C457.647 52.36 457.38 53.5067 457.38 54.84C457.38 56.1733 457.647 57.3467 458.18 58.36C458.74 59.3467 459.46 60.1067 460.34 60.64C461.247 61.1733 462.207 61.44 463.22 61.44C464.26 61.44 465.233 61.1867 466.14 60.68C467.047 60.1467 467.767 59.4 468.3 58.44C468.833 57.4533 469.1 56.28 469.1 54.92ZM499.38 66.28C497.434 66.28 495.674 65.9467 494.1 65.28C492.554 64.6133 491.327 63.6533 490.42 62.4C489.514 61.1467 489.047 59.6667 489.02 57.96H495.02C495.1 59.1067 495.5 60.0133 496.22 60.68C496.967 61.3467 497.98 61.68 499.26 61.68C500.567 61.68 501.594 61.3733 502.34 60.76C503.087 60.12 503.46 59.2933 503.46 58.28C503.46 57.4533 503.207 56.7733 502.7 56.24C502.194 55.7067 501.554 55.2933 500.78 55C500.034 54.68 498.994 54.3333 497.66 53.96C495.847 53.4267 494.367 52.9067 493.22 52.4C492.1 51.8667 491.127 51.08 490.3 50.04C489.5 48.9733 489.1 47.56 489.1 45.8C489.1 44.1467 489.514 42.7067 490.34 41.48C491.167 40.2533 492.327 39.32 493.82 38.68C495.314 38.0133 497.02 37.68 498.94 37.68C501.82 37.68 504.154 38.3867 505.94 39.8C507.754 41.1867 508.754 43.1333 508.94 45.64H502.78C502.727 44.68 502.314 43.8933 501.54 43.28C500.794 42.64 499.794 42.32 498.54 42.32C497.447 42.32 496.567 42.6 495.9 43.16C495.26 43.72 494.94 44.5333 494.94 45.6C494.94 46.3467 495.18 46.9733 495.66 47.48C496.167 47.96 496.78 48.36 497.5 48.68C498.247 48.9733 499.287 49.32 500.62 49.72C502.434 50.2533 503.914 50.7867 505.06 51.32C506.207 51.8533 507.194 52.6533 508.02 53.72C508.847 54.7867 509.26 56.1867 509.26 57.92C509.26 59.4133 508.874 60.8 508.1 62.08C507.327 63.36 506.194 64.3867 504.7 65.16C503.207 65.9067 501.434 66.28 499.38 66.28ZM535.315 43.84L521.595 76.48H515.635L520.435 65.44L511.555 43.84H517.835L523.555 59.32L529.355 43.84H535.315ZM546.814 66.36C545.001 66.36 543.374 66.04 541.934 65.4C540.494 64.7333 539.348 63.84 538.494 62.72C537.668 61.6 537.214 60.36 537.134 59H542.774C542.881 59.8533 543.294 60.56 544.014 61.12C544.761 61.68 545.681 61.96 546.774 61.96C547.841 61.96 548.668 61.7467 549.254 61.32C549.868 60.8933 550.174 60.3467 550.174 59.68C550.174 58.96 549.801 58.4267 549.054 58.08C548.334 57.7067 547.174 57.3067 545.574 56.88C543.921 56.48 542.561 56.0667 541.494 55.64C540.454 55.2133 539.548 54.56 538.774 53.68C538.028 52.8 537.654 51.6133 537.654 50.12C537.654 48.8933 538.001 47.7733 538.694 46.76C539.414 45.7467 540.428 44.9467 541.734 44.36C543.068 43.7733 544.628 43.48 546.414 43.48C549.054 43.48 551.161 44.1467 552.734 45.48C554.308 46.7867 555.174 48.56 555.334 50.8H549.974C549.894 49.92 549.521 49.2267 548.854 48.72C548.214 48.1867 547.348 47.92 546.254 47.92C545.241 47.92 544.454 48.1067 543.894 48.48C543.361 48.8533 543.094 49.3733 543.094 50.04C543.094 50.7867 543.468 51.36 544.214 51.76C544.961 52.1333 546.121 52.52 547.694 52.92C549.294 53.32 550.614 53.7333 551.654 54.16C552.694 54.5867 553.588 55.2533 554.334 56.16C555.108 57.04 555.508 58.2133 555.534 59.68C555.534 60.96 555.174 62.1067 554.454 63.12C553.761 64.1333 552.748 64.9333 551.414 65.52C550.108 66.08 548.574 66.36 546.814 66.36ZM566.651 48.44V59.16C566.651 59.9067 566.824 60.4533 567.171 60.8C567.544 61.12 568.158 61.28 569.011 61.28H571.611V66H568.091C563.371 66 561.011 63.7067 561.011 59.12V48.44H558.371V43.84H561.011V38.36H566.651V43.84H571.611V48.44H566.651ZM596.239 54.44C596.239 55.24 596.186 55.96 596.079 56.6H579.879C580.012 58.2 580.572 59.4533 581.559 60.36C582.546 61.2667 583.759 61.72 585.199 61.72C587.279 61.72 588.759 60.8267 589.639 59.04H595.679C595.039 61.1733 593.812 62.9333 591.999 64.32C590.186 65.68 587.959 66.36 585.319 66.36C583.186 66.36 581.266 65.8933 579.559 64.96C577.879 64 576.559 62.6533 575.599 60.92C574.666 59.1867 574.199 57.1867 574.199 54.92C574.199 52.6267 574.666 50.6133 575.599 48.88C576.532 47.1467 577.839 45.8133 579.519 44.88C581.199 43.9467 583.132 43.48 585.319 43.48C587.426 43.48 589.306 43.9333 590.959 44.84C592.639 45.7467 593.932 47.04 594.839 48.72C595.772 50.3733 596.239 52.28 596.239 54.44ZM590.439 52.84C590.412 51.4 589.892 50.2533 588.879 49.4C587.866 48.52 586.626 48.08 585.159 48.08C583.772 48.08 582.599 48.5067 581.639 49.36C580.706 50.1867 580.132 51.3467 579.919 52.84H590.439ZM627.846 43.52C630.566 43.52 632.753 44.36 634.406 46.04C636.086 47.6933 636.926 50.0133 636.926 53V66H631.326V53.76C631.326 52.0267 630.886 50.7067 630.006 49.8C629.126 48.8667 627.926 48.4 626.406 48.4C624.886 48.4 623.673 48.8667 622.766 49.8C621.886 50.7067 621.446 52.0267 621.446 53.76V66H615.846V53.76C615.846 52.0267 615.406 50.7067 614.526 49.8C613.646 48.8667 612.446 48.4 610.926 48.4C609.38 48.4 608.153 48.8667 607.246 49.8C606.366 50.7067 605.926 52.0267 605.926 53.76V66H600.326V43.84H605.926V46.52C606.646 45.5867 607.566 44.8533 608.686 44.32C609.833 43.7867 611.086 43.52 612.446 43.52C614.18 43.52 615.726 43.8933 617.086 44.64C618.446 45.36 619.5 46.4 620.246 47.76C620.966 46.48 622.006 45.4533 623.366 44.68C624.753 43.9067 626.246 43.52 627.846 43.52ZM176.604 106.72C176.604 108.213 176.244 109.613 175.524 110.92C174.831 112.227 173.724 113.28 172.204 114.08C170.711 114.88 168.818 115.28 166.524 115.28H161.844V126H156.244V98.08H166.524C168.684 98.08 170.524 98.4533 172.044 99.2C173.564 99.9467 174.698 100.973 175.444 102.28C176.218 103.587 176.604 105.067 176.604 106.72ZM166.284 110.76C167.831 110.76 168.978 110.413 169.724 109.72C170.471 109 170.844 108 170.844 106.72C170.844 104 169.324 102.64 166.284 102.64H161.844V110.76H166.284ZM201.18 114.44C201.18 115.24 201.127 115.96 201.02 116.6H184.82C184.954 118.2 185.514 119.453 186.5 120.36C187.487 121.267 188.7 121.72 190.14 121.72C192.22 121.72 193.7 120.827 194.58 119.04H200.62C199.98 121.173 198.754 122.933 196.94 124.32C195.127 125.68 192.9 126.36 190.26 126.36C188.127 126.36 186.207 125.893 184.5 124.96C182.82 124 181.5 122.653 180.54 120.92C179.607 119.187 179.14 117.187 179.14 114.92C179.14 112.627 179.607 110.613 180.54 108.88C181.474 107.147 182.78 105.813 184.46 104.88C186.14 103.947 188.074 103.48 190.26 103.48C192.367 103.48 194.247 103.933 195.9 104.84C197.58 105.747 198.874 107.04 199.78 108.72C200.714 110.373 201.18 112.28 201.18 114.44ZM195.38 112.84C195.354 111.4 194.834 110.253 193.82 109.4C192.807 108.52 191.567 108.08 190.1 108.08C188.714 108.08 187.54 108.507 186.58 109.36C185.647 110.187 185.074 111.347 184.86 112.84H195.38ZM232.788 103.52C235.508 103.52 237.694 104.36 239.348 106.04C241.028 107.693 241.868 110.013 241.868 113V126H236.268V113.76C236.268 112.027 235.828 110.707 234.948 109.8C234.068 108.867 232.868 108.4 231.348 108.4C229.828 108.4 228.614 108.867 227.708 109.8C226.828 110.707 226.388 112.027 226.388 113.76V126H220.788V113.76C220.788 112.027 220.348 110.707 219.468 109.8C218.588 108.867 217.388 108.4 215.868 108.4C214.321 108.4 213.094 108.867 212.188 109.8C211.308 110.707 210.868 112.027 210.868 113.76V126H205.268V103.84H210.868V106.52C211.588 105.587 212.508 104.853 213.628 104.32C214.774 103.787 216.028 103.52 217.388 103.52C219.121 103.52 220.668 103.893 222.028 104.64C223.388 105.36 224.441 106.4 225.188 107.76C225.908 106.48 226.948 105.453 228.308 104.68C229.694 103.907 231.188 103.52 232.788 103.52ZM267.782 114.44C267.782 115.24 267.729 115.96 267.622 116.6H251.422C251.555 118.2 252.115 119.453 253.102 120.36C254.089 121.267 255.302 121.72 256.742 121.72C258.822 121.72 260.302 120.827 261.182 119.04H267.222C266.582 121.173 265.355 122.933 263.542 124.32C261.729 125.68 259.502 126.36 256.862 126.36C254.729 126.36 252.809 125.893 251.102 124.96C249.422 124 248.102 122.653 247.142 120.92C246.209 119.187 245.742 117.187 245.742 114.92C245.742 112.627 246.209 110.613 247.142 108.88C248.075 107.147 249.382 105.813 251.062 104.88C252.742 103.947 254.675 103.48 256.862 103.48C258.969 103.48 260.849 103.933 262.502 104.84C264.182 105.747 265.475 107.04 266.382 108.72C267.315 110.373 267.782 112.28 267.782 114.44ZM261.982 112.84C261.955 111.4 261.435 110.253 260.422 109.4C259.409 108.52 258.169 108.08 256.702 108.08C255.315 108.08 254.142 108.507 253.182 109.36C252.249 110.187 251.675 111.347 251.462 112.84H261.982ZM277.469 107.28C278.189 106.107 279.123 105.187 280.269 104.52C281.443 103.853 282.776 103.52 284.269 103.52V109.4H282.789C281.029 109.4 279.696 109.813 278.789 110.64C277.909 111.467 277.469 112.907 277.469 114.96V126H271.869V103.84H277.469V107.28ZM290.881 101.2C289.895 101.2 289.068 100.893 288.401 100.28C287.761 99.64 287.441 98.8533 287.441 97.92C287.441 96.9867 287.761 96.2133 288.401 95.6C289.068 94.96 289.895 94.64 290.881 94.64C291.868 94.64 292.681 94.96 293.321 95.6C293.988 96.2133 294.321 96.9867 294.321 97.92C294.321 98.8533 293.988 99.64 293.321 100.28C292.681 100.893 291.868 101.2 290.881 101.2ZM293.641 103.84V126H288.041V103.84H293.641ZM311.454 103.52C314.094 103.52 316.227 104.36 317.854 106.04C319.481 107.693 320.294 110.013 320.294 113V126H314.694V113.76C314.694 112 314.254 110.653 313.374 109.72C312.494 108.76 311.294 108.28 309.774 108.28C308.227 108.28 307.001 108.76 306.094 109.72C305.214 110.653 304.774 112 304.774 113.76V126H299.174V103.84H304.774V106.6C305.521 105.64 306.467 104.893 307.614 104.36C308.787 103.8 310.067 103.52 311.454 103.52ZM332.139 108.44V119.16C332.139 119.907 332.313 120.453 332.659 120.8C333.033 121.12 333.646 121.28 334.499 121.28H337.099V126H333.579C328.859 126 326.499 123.707 326.499 119.12V108.44H323.859V103.84H326.499V98.36H332.139V103.84H337.099V108.44H332.139ZM339.687 114.84C339.687 112.6 340.127 110.613 341.007 108.88C341.914 107.147 343.127 105.813 344.647 104.88C346.194 103.947 347.914 103.48 349.807 103.48C351.461 103.48 352.901 103.813 354.127 104.48C355.381 105.147 356.381 105.987 357.127 107V103.84H362.767V126H357.127V122.76C356.407 123.8 355.407 124.667 354.127 125.36C352.874 126.027 351.421 126.36 349.767 126.36C347.901 126.36 346.194 125.88 344.647 124.92C343.127 123.96 341.914 122.613 341.007 120.88C340.127 119.12 339.687 117.107 339.687 114.84ZM357.127 114.92C357.127 113.56 356.861 112.4 356.327 111.44C355.794 110.453 355.074 109.707 354.167 109.2C353.261 108.667 352.287 108.4 351.247 108.4C350.207 108.4 349.247 108.653 348.367 109.16C347.487 109.667 346.767 110.413 346.207 111.4C345.674 112.36 345.407 113.507 345.407 114.84C345.407 116.173 345.674 117.347 346.207 118.36C346.767 119.347 347.487 120.107 348.367 120.64C349.274 121.173 350.234 121.44 351.247 121.44C352.287 121.44 353.261 121.187 354.167 120.68C355.074 120.147 355.794 119.4 356.327 118.44C356.861 117.453 357.127 116.28 357.127 114.92ZM380.717 103.52C382.397 103.52 383.89 103.893 385.197 104.64C386.503 105.36 387.517 106.44 388.237 107.88C388.983 109.293 389.357 111 389.357 113V126H383.757V113.76C383.757 112 383.317 110.653 382.437 109.72C381.557 108.76 380.357 108.28 378.837 108.28C377.29 108.28 376.063 108.76 375.157 109.72C374.277 110.653 373.837 112 373.837 113.76V126H368.237V96.4H373.837V106.6C374.557 105.64 375.517 104.893 376.717 104.36C377.917 103.8 379.25 103.52 380.717 103.52ZM419.973 126L409.813 113.56V126H404.213V98.08H409.813V110.6L419.973 98.08H426.733L415.213 111.92L427.053 126H419.973ZM440.577 126.36C438.443 126.36 436.523 125.893 434.817 124.96C433.11 124 431.763 122.653 430.777 120.92C429.817 119.187 429.337 117.187 429.337 114.92C429.337 112.653 429.83 110.653 430.817 108.92C431.83 107.187 433.203 105.853 434.937 104.92C436.67 103.96 438.603 103.48 440.737 103.48C442.87 103.48 444.803 103.96 446.537 104.92C448.27 105.853 449.63 107.187 450.617 108.92C451.63 110.653 452.137 112.653 452.137 114.92C452.137 117.187 451.617 119.187 450.577 120.92C449.563 122.653 448.177 124 446.417 124.96C444.683 125.893 442.737 126.36 440.577 126.36ZM440.577 121.48C441.59 121.48 442.537 121.24 443.417 120.76C444.323 120.253 445.043 119.507 445.577 118.52C446.11 117.533 446.377 116.333 446.377 114.92C446.377 112.813 445.817 111.2 444.697 110.08C443.603 108.933 442.257 108.36 440.657 108.36C439.057 108.36 437.71 108.933 436.617 110.08C435.55 111.2 435.017 112.813 435.017 114.92C435.017 117.027 435.537 118.653 436.577 119.8C437.643 120.92 438.977 121.48 440.577 121.48ZM462.764 108.44V119.16C462.764 119.907 462.938 120.453 463.284 120.8C463.658 121.12 464.271 121.28 465.124 121.28H467.724V126H464.204C459.484 126 457.124 123.707 457.124 119.12V108.44H454.484V103.84H457.124V98.36H462.764V103.84H467.724V108.44H462.764ZM470.312 114.84C470.312 112.6 470.752 110.613 471.632 108.88C472.539 107.147 473.752 105.813 475.272 104.88C476.819 103.947 478.539 103.48 480.432 103.48C482.086 103.48 483.526 103.813 484.752 104.48C486.006 105.147 487.006 105.987 487.752 107V103.84H493.392V126H487.752V122.76C487.032 123.8 486.032 124.667 484.752 125.36C483.499 126.027 482.046 126.36 480.392 126.36C478.526 126.36 476.819 125.88 475.272 124.92C473.752 123.96 472.539 122.613 471.632 120.88C470.752 119.12 470.312 117.107 470.312 114.84ZM487.752 114.92C487.752 113.56 487.486 112.4 486.952 111.44C486.419 110.453 485.699 109.707 484.792 109.2C483.886 108.667 482.912 108.4 481.872 108.4C480.832 108.4 479.872 108.653 478.992 109.16C478.112 109.667 477.392 110.413 476.832 111.4C476.299 112.36 476.032 113.507 476.032 114.84C476.032 116.173 476.299 117.347 476.832 118.36C477.392 119.347 478.112 120.107 478.992 120.64C479.899 121.173 480.859 121.44 481.872 121.44C482.912 121.44 483.886 121.187 484.792 120.68C485.699 120.147 486.419 119.4 486.952 118.44C487.486 117.453 487.752 116.28 487.752 114.92ZM538.833 98.08V126H533.233V107.84L525.753 126H521.513L513.993 107.84V126H508.393V98.08H514.753L523.633 118.84L532.513 98.08H538.833ZM542.929 114.84C542.929 112.6 543.369 110.613 544.249 108.88C545.156 107.147 546.369 105.813 547.889 104.88C549.436 103.947 551.156 103.48 553.049 103.48C554.703 103.48 556.143 103.813 557.369 104.48C558.623 105.147 559.623 105.987 560.369 107V103.84H566.009V126H560.369V122.76C559.649 123.8 558.649 124.667 557.369 125.36C556.116 126.027 554.663 126.36 553.009 126.36C551.143 126.36 549.436 125.88 547.889 124.92C546.369 123.96 545.156 122.613 544.249 120.88C543.369 119.12 542.929 117.107 542.929 114.84ZM560.369 114.92C560.369 113.56 560.103 112.4 559.569 111.44C559.036 110.453 558.316 109.707 557.409 109.2C556.503 108.667 555.529 108.4 554.489 108.4C553.449 108.4 552.489 108.653 551.609 109.16C550.729 109.667 550.009 110.413 549.449 111.4C548.916 112.36 548.649 113.507 548.649 114.84C548.649 116.173 548.916 117.347 549.449 118.36C550.009 119.347 550.729 120.107 551.609 120.64C552.516 121.173 553.476 121.44 554.489 121.44C555.529 121.44 556.503 121.187 557.409 120.68C558.316 120.147 559.036 119.4 559.569 118.44C560.103 117.453 560.369 116.28 560.369 114.92ZM577.079 96.4V126H571.479V96.4H577.079ZM581.172 114.84C581.172 112.6 581.612 110.613 582.492 108.88C583.398 107.147 584.612 105.813 586.132 104.88C587.678 103.947 589.398 103.48 591.292 103.48C592.945 103.48 594.385 103.813 595.612 104.48C596.865 105.147 597.865 105.987 598.612 107V103.84H604.252V126H598.612V122.76C597.892 123.8 596.892 124.667 595.612 125.36C594.358 126.027 592.905 126.36 591.252 126.36C589.385 126.36 587.678 125.88 586.132 124.92C584.612 123.96 583.398 122.613 582.492 120.88C581.612 119.12 581.172 117.107 581.172 114.84ZM598.612 114.92C598.612 113.56 598.345 112.4 597.812 111.44C597.278 110.453 596.558 109.707 595.652 109.2C594.745 108.667 593.772 108.4 592.732 108.4C591.692 108.4 590.732 108.653 589.852 109.16C588.972 109.667 588.252 110.413 587.692 111.4C587.158 112.36 586.892 113.507 586.892 114.84C586.892 116.173 587.158 117.347 587.692 118.36C588.252 119.347 588.972 120.107 589.852 120.64C590.758 121.173 591.718 121.44 592.732 121.44C593.772 121.44 594.745 121.187 595.652 120.68C596.558 120.147 597.278 119.4 597.812 118.44C598.345 117.453 598.612 116.28 598.612 114.92ZM622.001 103.52C624.641 103.52 626.774 104.36 628.401 106.04C630.028 107.693 630.841 110.013 630.841 113V126H625.241V113.76C625.241 112 624.801 110.653 623.921 109.72C623.041 108.76 621.841 108.28 620.321 108.28C618.774 108.28 617.548 108.76 616.641 109.72C615.761 110.653 615.321 112 615.321 113.76V126H609.721V103.84H615.321V106.6C616.068 105.64 617.014 104.893 618.161 104.36C619.334 103.8 620.614 103.52 622.001 103.52ZM644.846 103.48C646.5 103.48 647.953 103.813 649.206 104.48C650.46 105.12 651.446 105.96 652.166 107V103.84H657.806V126.16C657.806 128.213 657.393 130.04 656.566 131.64C655.74 133.267 654.5 134.547 652.846 135.48C651.193 136.44 649.193 136.92 646.846 136.92C643.7 136.92 641.113 136.187 639.086 134.72C637.086 133.253 635.953 131.253 635.686 128.72H641.246C641.54 129.733 642.166 130.533 643.126 131.12C644.113 131.733 645.3 132.04 646.686 132.04C648.313 132.04 649.633 131.547 650.646 130.56C651.66 129.6 652.166 128.133 652.166 126.16V122.72C651.446 123.76 650.446 124.627 649.166 125.32C647.913 126.013 646.473 126.36 644.846 126.36C642.98 126.36 641.273 125.88 639.726 124.92C638.18 123.96 636.953 122.613 636.046 120.88C635.166 119.12 634.726 117.107 634.726 114.84C634.726 112.6 635.166 110.613 636.046 108.88C636.953 107.147 638.166 105.813 639.686 104.88C641.233 103.947 642.953 103.48 644.846 103.48ZM652.166 114.92C652.166 113.56 651.9 112.4 651.366 111.44C650.833 110.453 650.113 109.707 649.206 109.2C648.3 108.667 647.326 108.4 646.286 108.4C645.246 108.4 644.286 108.653 643.406 109.16C642.526 109.667 641.806 110.413 641.246 111.4C640.713 112.36 640.446 113.507 640.446 114.84C640.446 116.173 640.713 117.347 641.246 118.36C641.806 119.347 642.526 120.107 643.406 120.64C644.313 121.173 645.273 121.44 646.286 121.44C647.326 121.44 648.3 121.187 649.206 120.68C650.113 120.147 650.833 119.4 651.366 118.44C651.9 117.453 652.166 116.28 652.166 114.92Z" fill="url(#paint0_linear_369_1588)"/>
<path d="M164.988 70H639.486V72H164.988V70Z" fill="url(#paint1_linear_369_1588)"/>
<path d="M17.3881 40.0986C19.3452 33.7273 26.0966 30.1488 32.468 32.1058L92.791 50.6347C99.3705 52.6556 103.73 58.8951 103.366 65.7683L102.702 78.2787L61.7401 68.5022L24.777 54.9754C18.7503 52.7698 15.5038 46.2334 17.3881 40.0986V40.0986Z" fill="url(#paint2_linear_369_1588)"/>
<circle cx="89.2876" cy="86.8474" r="35.6453" transform="rotate(17.0749 89.2876 86.8474)" fill="url(#paint3_linear_369_1588)"/>
<circle cx="89.1457" cy="86.5791" r="17.8226" transform="rotate(17.0749 89.1457 86.5791)" fill="white"/>
<rect x="79.0879" y="26.649" width="11.166" height="17.1784" rx="5.583" transform="rotate(-13.9325 79.0879 26.649)" fill="url(#paint4_linear_369_1588)"/>
<rect width="11.166" height="17.1784" rx="5.583" transform="matrix(-0.668063 -0.744105 -0.744105 0.668063 130.787 42.2654)" fill="url(#paint5_linear_369_1588)"/>
<rect x="102.607" y="22.3929" width="11.166" height="17.1784" rx="5.583" transform="rotate(17.0749 102.607 22.3929)" fill="url(#paint6_linear_369_1588)"/>
<defs>
<linearGradient id="paint0_linear_369_1588" x1="161.013" y1="79.6316" x2="677.826" y2="82.0713" gradientUnits="userSpaceOnUse">
<stop offset="0.122917" stop-color="#349AB0"/>
<stop offset="0.58747" stop-color="#049EDB"/>
<stop offset="0.931035" stop-color="#95CF81"/>
</linearGradient>
<linearGradient id="paint1_linear_369_1588" x1="161.013" y1="79.6316" x2="677.826" y2="82.0713" gradientUnits="userSpaceOnUse">
<stop offset="0.122917" stop-color="#349AB0"/>
<stop offset="0.58747" stop-color="#049EDB"/>
<stop offset="0.931035" stop-color="#95CF81"/>
</linearGradient>
<linearGradient id="paint2_linear_369_1588" x1="65.269" y1="42.181" x2="57.577" y2="67.2234" gradientUnits="userSpaceOnUse">
<stop stop-color="#349AB0"/>
<stop offset="0.4375" stop-color="#95CF81"/>
<stop offset="1" stop-color="#049EDB"/>
</linearGradient>
<linearGradient id="paint3_linear_369_1588" x1="89.2876" y1="51.2022" x2="89.2876" y2="122.493" gradientUnits="userSpaceOnUse">
<stop stop-color="#349AB0"/>
<stop offset="0.4375" stop-color="#95CF81"/>
<stop offset="1" stop-color="#049EDB"/>
</linearGradient>
<linearGradient id="paint4_linear_369_1588" x1="84.6709" y1="26.649" x2="84.6709" y2="43.8274" gradientUnits="userSpaceOnUse">
<stop stop-color="#349AB0"/>
<stop offset="0.4375" stop-color="#95CF81"/>
<stop offset="1" stop-color="#049EDB"/>
</linearGradient>
<linearGradient id="paint5_linear_369_1588" x1="5.583" y1="0" x2="5.583" y2="17.1784" gradientUnits="userSpaceOnUse">
<stop stop-color="#349AB0"/>
<stop offset="0.4375" stop-color="#95CF81"/>
<stop offset="1" stop-color="#049EDB"/>
</linearGradient>
<linearGradient id="paint6_linear_369_1588" x1="108.19" y1="22.3929" x2="108.19" y2="39.5714" gradientUnits="userSpaceOnUse">
<stop stop-color="#349AB0"/>
<stop offset="0.4375" stop-color="#95CF81"/>
<stop offset="1" stop-color="#049EDB"/>
</linearGradient>
</defs>
</svg>
