<svg width="272" height="76" viewBox="0 0 272 76" fill="none" xmlns="http://www.w3.org/2000/svg">
<g filter="url(#filter0_d_2572_291)">
<path d="M80.7273 13.832L77.6073 25H74.9673L72.8713 17.048L70.6793 25L68.0553 25.016L65.0473 13.832H67.4473L69.4153 22.504L71.6873 13.832H74.1833L76.3273 22.456L78.3113 13.832H80.7273ZM87.1819 16.008C87.8539 16.008 88.4513 16.1573 88.9739 16.456C89.4966 16.744 89.9019 17.176 90.1899 17.752C90.4886 18.3173 90.6379 19 90.6379 19.8V25H88.3979V20.104C88.3979 19.4 88.2219 18.8613 87.8699 18.488C87.5179 18.104 87.0379 17.912 86.4299 17.912C85.8113 17.912 85.3206 18.104 84.9579 18.488C84.6059 18.8613 84.4299 19.4 84.4299 20.104V25H82.1899V13.16H84.4299V17.24C84.7179 16.856 85.1019 16.5573 85.5819 16.344C86.0619 16.12 86.5953 16.008 87.1819 16.008ZM93.9041 15.08C93.5094 15.08 93.1787 14.9573 92.9121 14.712C92.6561 14.456 92.5281 14.1413 92.5281 13.768C92.5281 13.3947 92.6561 13.0853 92.9121 12.84C93.1787 12.584 93.5094 12.456 93.9041 12.456C94.2987 12.456 94.6241 12.584 94.8801 12.84C95.1467 13.0853 95.2801 13.3947 95.2801 13.768C95.2801 14.1413 95.1467 14.456 94.8801 14.712C94.6241 14.9573 94.2987 15.08 93.9041 15.08ZM95.0081 16.136V25H92.7681V16.136H95.0081ZM100.613 25.144C99.8879 25.144 99.2372 25.016 98.6612 24.76C98.0852 24.4933 97.6265 24.136 97.2852 23.688C96.9545 23.24 96.7732 22.744 96.7412 22.2H98.9972C99.0399 22.5413 99.2052 22.824 99.4932 23.048C99.7919 23.272 100.16 23.384 100.597 23.384C101.024 23.384 101.355 23.2987 101.589 23.128C101.835 22.9573 101.957 22.7387 101.957 22.472C101.957 22.184 101.808 21.9707 101.509 21.832C101.221 21.6827 100.757 21.5227 100.117 21.352C99.4559 21.192 98.9119 21.0267 98.4852 20.856C98.0692 20.6853 97.7065 20.424 97.3972 20.072C97.0985 19.72 96.9492 19.2453 96.9492 18.648C96.9492 18.1573 97.0879 17.7093 97.3652 17.304C97.6532 16.8987 98.0585 16.5787 98.5812 16.344C99.1145 16.1093 99.7385 15.992 100.453 15.992C101.509 15.992 102.352 16.2587 102.981 16.792C103.611 17.3147 103.957 18.024 104.021 18.92H101.877C101.845 18.568 101.696 18.2907 101.429 18.088C101.173 17.8747 100.827 17.768 100.389 17.768C99.9839 17.768 99.6692 17.8427 99.4452 17.992C99.2319 18.1413 99.1252 18.3493 99.1252 18.616C99.1252 18.9147 99.2745 19.144 99.5732 19.304C99.8719 19.4533 100.336 19.608 100.965 19.768C101.605 19.928 102.133 20.0933 102.549 20.264C102.965 20.4347 103.323 20.7013 103.621 21.064C103.931 21.416 104.091 21.8853 104.101 22.472C104.101 22.984 103.957 23.4427 103.669 23.848C103.392 24.2533 102.987 24.5733 102.453 24.808C101.931 25.032 101.317 25.144 100.613 25.144ZM108.548 17.976V22.264C108.548 22.5627 108.617 22.7813 108.756 22.92C108.905 23.048 109.151 23.112 109.492 23.112H110.532V25H109.124C107.236 25 106.292 24.0827 106.292 22.248V17.976H105.236V16.136H106.292V13.944H108.548V16.136H110.532V17.976H108.548ZM114.383 13.16V25H112.143V13.16H114.383ZM124.836 20.376C124.836 20.696 124.815 20.984 124.772 21.24H118.292C118.346 21.88 118.57 22.3813 118.964 22.744C119.359 23.1067 119.844 23.288 120.42 23.288C121.252 23.288 121.844 22.9307 122.196 22.216H124.612C124.356 23.0693 123.866 23.7733 123.14 24.328C122.415 24.872 121.524 25.144 120.468 25.144C119.615 25.144 118.847 24.9573 118.164 24.584C117.492 24.2 116.964 23.6613 116.58 22.968C116.207 22.2747 116.02 21.4747 116.02 20.568C116.02 19.6507 116.207 18.8453 116.58 18.152C116.954 17.4587 117.476 16.9253 118.148 16.552C118.82 16.1787 119.594 15.992 120.468 15.992C121.311 15.992 122.063 16.1733 122.724 16.536C123.396 16.8987 123.914 17.416 124.276 18.088C124.65 18.7493 124.836 19.512 124.836 20.376ZM122.516 19.736C122.506 19.16 122.298 18.7013 121.892 18.36C121.487 18.008 120.991 17.832 120.404 17.832C119.85 17.832 119.38 18.0027 118.996 18.344C118.623 18.6747 118.394 19.1387 118.308 19.736H122.516ZM132.807 19.272C133.437 19.3893 133.954 19.704 134.359 20.216C134.765 20.728 134.967 21.3147 134.967 21.976C134.967 22.5733 134.818 23.1013 134.519 23.56C134.231 24.008 133.81 24.36 133.255 24.616C132.701 24.872 132.045 25 131.287 25H126.471V13.832H131.079C131.837 13.832 132.487 13.9547 133.031 14.2C133.586 14.4453 134.002 14.7867 134.279 15.224C134.567 15.6613 134.711 16.1573 134.711 16.712C134.711 17.3627 134.535 17.9067 134.183 18.344C133.842 18.7813 133.383 19.0907 132.807 19.272ZM128.711 18.44H130.759C131.293 18.44 131.703 18.3227 131.991 18.088C132.279 17.8427 132.423 17.496 132.423 17.048C132.423 16.6 132.279 16.2533 131.991 16.008C131.703 15.7627 131.293 15.64 130.759 15.64H128.711V18.44ZM130.967 23.176C131.511 23.176 131.933 23.048 132.231 22.792C132.541 22.536 132.695 22.1733 132.695 21.704C132.695 21.224 132.535 20.8507 132.215 20.584C131.895 20.3067 131.463 20.168 130.919 20.168H128.711V23.176H130.967ZM138.992 13.16V25H136.752V13.16H138.992ZM145.142 25.144C144.288 25.144 143.52 24.9573 142.838 24.584C142.155 24.2 141.616 23.6613 141.222 22.968C140.838 22.2747 140.646 21.4747 140.646 20.568C140.646 19.6613 140.843 18.8613 141.238 18.168C141.643 17.4747 142.192 16.9413 142.886 16.568C143.579 16.184 144.352 15.992 145.206 15.992C146.059 15.992 146.832 16.184 147.526 16.568C148.219 16.9413 148.763 17.4747 149.158 18.168C149.563 18.8613 149.766 19.6613 149.766 20.568C149.766 21.4747 149.558 22.2747 149.142 22.968C148.736 23.6613 148.182 24.2 147.478 24.584C146.784 24.9573 146.006 25.144 145.142 25.144ZM145.142 23.192C145.547 23.192 145.926 23.096 146.278 22.904C146.64 22.7013 146.928 22.4027 147.142 22.008C147.355 21.6133 147.462 21.1333 147.462 20.568C147.462 19.7253 147.238 19.08 146.79 18.632C146.352 18.1733 145.814 17.944 145.174 17.944C144.534 17.944 143.995 18.1733 143.558 18.632C143.131 19.08 142.918 19.7253 142.918 20.568C142.918 21.4107 143.126 22.0613 143.542 22.52C143.968 22.968 144.502 23.192 145.142 23.192ZM163.697 16.136L161.105 25H158.689L157.073 18.808L155.457 25H153.025L150.417 16.136H152.689L154.257 22.888L155.953 16.136H158.321L159.985 22.872L161.553 16.136H163.697ZM166.045 15.08C165.65 15.08 165.319 14.9573 165.053 14.712C164.797 14.456 164.669 14.1413 164.669 13.768C164.669 13.3947 164.797 13.0853 165.053 12.84C165.319 12.584 165.65 12.456 166.045 12.456C166.439 12.456 166.765 12.584 167.021 12.84C167.287 13.0853 167.421 13.3947 167.421 13.768C167.421 14.1413 167.287 14.456 167.021 14.712C166.765 14.9573 166.439 15.08 166.045 15.08ZM167.149 16.136V25H164.909V16.136H167.149ZM174.274 16.008C175.33 16.008 176.183 16.344 176.834 17.016C177.484 17.6773 177.81 18.6053 177.81 19.8V25H175.57V20.104C175.57 19.4 175.394 18.8613 175.042 18.488C174.69 18.104 174.21 17.912 173.602 17.912C172.983 17.912 172.492 18.104 172.13 18.488C171.778 18.8613 171.602 19.4 171.602 20.104V25H169.362V16.136H171.602V17.24C171.9 16.856 172.279 16.5573 172.738 16.344C173.207 16.12 173.719 16.008 174.274 16.008ZM183.412 15.992C184.073 15.992 184.655 16.1253 185.156 16.392C185.657 16.648 186.052 16.984 186.34 17.4V16.136H188.596V25.064C188.596 25.8853 188.431 26.616 188.1 27.256C187.769 27.9067 187.273 28.4187 186.612 28.792C185.951 29.176 185.151 29.368 184.212 29.368C182.953 29.368 181.919 29.0747 181.108 28.488C180.308 27.9013 179.855 27.1013 179.748 26.088H181.972C182.089 26.4933 182.34 26.8133 182.724 27.048C183.119 27.2933 183.593 27.416 184.148 27.416C184.799 27.416 185.327 27.2187 185.732 26.824C186.137 26.44 186.34 25.8533 186.34 25.064V23.688C186.052 24.104 185.652 24.4507 185.14 24.728C184.639 25.0053 184.063 25.144 183.412 25.144C182.665 25.144 181.983 24.952 181.364 24.568C180.745 24.184 180.255 23.6453 179.892 22.952C179.54 22.248 179.364 21.4427 179.364 20.536C179.364 19.64 179.54 18.8453 179.892 18.152C180.255 17.4587 180.74 16.9253 181.348 16.552C181.967 16.1787 182.655 15.992 183.412 15.992ZM186.34 20.568C186.34 20.024 186.233 19.56 186.02 19.176C185.807 18.7813 185.519 18.4827 185.156 18.28C184.793 18.0667 184.404 17.96 183.988 17.96C183.572 17.96 183.188 18.0613 182.836 18.264C182.484 18.4667 182.196 18.7653 181.972 19.16C181.759 19.544 181.652 20.0027 181.652 20.536C181.652 21.0693 181.759 21.5387 181.972 21.944C182.196 22.3387 182.484 22.6427 182.836 22.856C183.199 23.0693 183.583 23.176 183.988 23.176C184.404 23.176 184.793 23.0747 185.156 22.872C185.519 22.6587 185.807 22.36 186.02 21.976C186.233 21.5813 186.34 21.112 186.34 20.568ZM198.452 25.112C197.674 25.112 196.97 24.9787 196.34 24.712C195.722 24.4453 195.231 24.0613 194.868 23.56C194.506 23.0587 194.319 22.4667 194.308 21.784H196.708C196.74 22.2427 196.9 22.6053 197.188 22.872C197.487 23.1387 197.892 23.272 198.404 23.272C198.927 23.272 199.338 23.1493 199.636 22.904C199.935 22.648 200.084 22.3173 200.084 21.912C200.084 21.5813 199.983 21.3093 199.78 21.096C199.578 20.8827 199.322 20.7173 199.012 20.6C198.714 20.472 198.298 20.3333 197.764 20.184C197.039 19.9707 196.447 19.7627 195.988 19.56C195.54 19.3467 195.151 19.032 194.82 18.616C194.5 18.1893 194.34 17.624 194.34 16.92C194.34 16.2587 194.506 15.6827 194.836 15.192C195.167 14.7013 195.631 14.328 196.228 14.072C196.826 13.8053 197.508 13.672 198.276 13.672C199.428 13.672 200.362 13.9547 201.076 14.52C201.802 15.0747 202.202 15.8533 202.276 16.856H199.812C199.791 16.472 199.626 16.1573 199.316 15.912C199.018 15.656 198.618 15.528 198.116 15.528C197.679 15.528 197.327 15.64 197.06 15.864C196.804 16.088 196.676 16.4133 196.676 16.84C196.676 17.1387 196.772 17.3893 196.964 17.592C197.167 17.784 197.412 17.944 197.7 18.072C197.999 18.1893 198.415 18.328 198.948 18.488C199.674 18.7013 200.266 18.9147 200.724 19.128C201.183 19.3413 201.578 19.6613 201.908 20.088C202.239 20.5147 202.404 21.0747 202.404 21.768C202.404 22.3653 202.25 22.92 201.94 23.432C201.631 23.944 201.178 24.3547 200.58 24.664C199.983 24.9627 199.274 25.112 198.452 25.112ZM212.826 16.136L207.338 29.192H204.954L206.874 24.776L203.322 16.136H205.834L208.122 22.328L210.442 16.136H212.826ZM217.426 25.144C216.7 25.144 216.05 25.016 215.474 24.76C214.898 24.4933 214.439 24.136 214.098 23.688C213.767 23.24 213.586 22.744 213.554 22.2H215.81C215.852 22.5413 216.018 22.824 216.306 23.048C216.604 23.272 216.972 23.384 217.41 23.384C217.836 23.384 218.167 23.2987 218.402 23.128C218.647 22.9573 218.77 22.7387 218.77 22.472C218.77 22.184 218.62 21.9707 218.322 21.832C218.034 21.6827 217.57 21.5227 216.93 21.352C216.268 21.192 215.724 21.0267 215.298 20.856C214.882 20.6853 214.519 20.424 214.21 20.072C213.911 19.72 213.762 19.2453 213.762 18.648C213.762 18.1573 213.9 17.7093 214.178 17.304C214.466 16.8987 214.871 16.5787 215.394 16.344C215.927 16.1093 216.551 15.992 217.266 15.992C218.322 15.992 219.164 16.2587 219.794 16.792C220.423 17.3147 220.77 18.024 220.834 18.92H218.69C218.658 18.568 218.508 18.2907 218.242 18.088C217.986 17.8747 217.639 17.768 217.202 17.768C216.796 17.768 216.482 17.8427 216.258 17.992C216.044 18.1413 215.938 18.3493 215.938 18.616C215.938 18.9147 216.087 19.144 216.386 19.304C216.684 19.4533 217.148 19.608 217.778 19.768C218.418 19.928 218.946 20.0933 219.362 20.264C219.778 20.4347 220.135 20.7013 220.434 21.064C220.743 21.416 220.903 21.8853 220.914 22.472C220.914 22.984 220.77 23.4427 220.482 23.848C220.204 24.2533 219.799 24.5733 219.266 24.808C218.743 25.032 218.13 25.144 217.426 25.144ZM225.36 17.976V22.264C225.36 22.5627 225.43 22.7813 225.568 22.92C225.718 23.048 225.963 23.112 226.304 23.112H227.344V25H225.936C224.048 25 223.104 24.0827 223.104 22.248V17.976H222.048V16.136H223.104V13.944H225.36V16.136H227.344V17.976H225.36ZM237.196 20.376C237.196 20.696 237.174 20.984 237.132 21.24H230.652C230.705 21.88 230.929 22.3813 231.324 22.744C231.718 23.1067 232.204 23.288 232.78 23.288C233.612 23.288 234.204 22.9307 234.556 22.216H236.972C236.716 23.0693 236.225 23.7733 235.5 24.328C234.774 24.872 233.884 25.144 232.828 25.144C231.974 25.144 231.206 24.9573 230.524 24.584C229.852 24.2 229.324 23.6613 228.94 22.968C228.566 22.2747 228.38 21.4747 228.38 20.568C228.38 19.6507 228.566 18.8453 228.94 18.152C229.313 17.4587 229.836 16.9253 230.508 16.552C231.18 16.1787 231.953 15.992 232.828 15.992C233.67 15.992 234.422 16.1733 235.084 16.536C235.756 16.8987 236.273 17.416 236.636 18.088C237.009 18.7493 237.196 19.512 237.196 20.376ZM234.876 19.736C234.865 19.16 234.657 18.7013 234.252 18.36C233.846 18.008 233.35 17.832 232.764 17.832C232.209 17.832 231.74 18.0027 231.356 18.344C230.982 18.6747 230.753 19.1387 230.668 19.736H234.876ZM249.839 16.008C250.927 16.008 251.801 16.344 252.463 17.016C253.135 17.6773 253.471 18.6053 253.471 19.8V25H251.231V20.104C251.231 19.4107 251.055 18.8827 250.703 18.52C250.351 18.1467 249.871 17.96 249.263 17.96C248.655 17.96 248.169 18.1467 247.807 18.52C247.455 18.8827 247.279 19.4107 247.279 20.104V25H245.039V20.104C245.039 19.4107 244.863 18.8827 244.511 18.52C244.159 18.1467 243.679 17.96 243.071 17.96C242.452 17.96 241.961 18.1467 241.599 18.52C241.247 18.8827 241.071 19.4107 241.071 20.104V25H238.831V16.136H241.071V17.208C241.359 16.8347 241.727 16.5413 242.175 16.328C242.633 16.1147 243.135 16.008 243.679 16.008C244.372 16.008 244.991 16.1573 245.535 16.456C246.079 16.744 246.5 17.16 246.799 17.704C247.087 17.192 247.503 16.7813 248.047 16.472C248.601 16.1627 249.199 16.008 249.839 16.008ZM69.3418 41.288C69.3418 41.8853 69.1978 42.4453 68.9097 42.968C68.6324 43.4907 68.1898 43.912 67.5818 44.232C66.9844 44.552 66.2271 44.712 65.3098 44.712H63.4378V49H61.1978V37.832H65.3098C66.1738 37.832 66.9098 37.9813 67.5178 38.28C68.1258 38.5787 68.5791 38.9893 68.8778 39.512C69.1871 40.0347 69.3418 40.6267 69.3418 41.288ZM65.2138 42.904C65.8324 42.904 66.2911 42.7653 66.5898 42.488C66.8884 42.2 67.0378 41.8 67.0378 41.288C67.0378 40.2 66.4298 39.656 65.2138 39.656H63.4378V42.904H65.2138ZM79.1721 44.376C79.1721 44.696 79.1508 44.984 79.1081 45.24H72.6281C72.6815 45.88 72.9055 46.3813 73.3001 46.744C73.6948 47.1067 74.1801 47.288 74.7561 47.288C75.5881 47.288 76.1801 46.9307 76.5321 46.216H78.9481C78.6921 47.0693 78.2015 47.7733 77.4761 48.328C76.7508 48.872 75.8601 49.144 74.8041 49.144C73.9508 49.144 73.1828 48.9573 72.5001 48.584C71.8281 48.2 71.3001 47.6613 70.9161 46.968C70.5428 46.2747 70.3561 45.4747 70.3561 44.568C70.3561 43.6507 70.5428 42.8453 70.9161 42.152C71.2895 41.4587 71.8121 40.9253 72.4841 40.552C73.1561 40.1787 73.9295 39.992 74.8041 39.992C75.6468 39.992 76.3988 40.1733 77.0601 40.536C77.7321 40.8987 78.2495 41.416 78.6121 42.088C78.9855 42.7493 79.1721 43.512 79.1721 44.376ZM76.8521 43.736C76.8415 43.16 76.6335 42.7013 76.2281 42.36C75.8228 42.008 75.3268 41.832 74.7401 41.832C74.1855 41.832 73.7161 42.0027 73.3321 42.344C72.9588 42.6747 72.7295 43.1387 72.6441 43.736H76.8521ZM91.8151 40.008C92.9031 40.008 93.7778 40.344 94.4391 41.016C95.1111 41.6773 95.4471 42.6053 95.4471 43.8V49H93.2071V44.104C93.2071 43.4107 93.0311 42.8827 92.6791 42.52C92.3271 42.1467 91.8471 41.96 91.2391 41.96C90.6311 41.96 90.1458 42.1467 89.7831 42.52C89.4311 42.8827 89.2551 43.4107 89.2551 44.104V49H87.0151V44.104C87.0151 43.4107 86.8391 42.8827 86.4871 42.52C86.1351 42.1467 85.6551 41.96 85.0471 41.96C84.4285 41.96 83.9378 42.1467 83.5751 42.52C83.2231 42.8827 83.0471 43.4107 83.0471 44.104V49H80.8071V40.136H83.0471V41.208C83.3351 40.8347 83.7031 40.5413 84.1511 40.328C84.6098 40.1147 85.1111 40.008 85.6551 40.008C86.3485 40.008 86.9671 40.1573 87.5111 40.456C88.0551 40.744 88.4765 41.16 88.7751 41.704C89.0631 41.192 89.4791 40.7813 90.0231 40.472C90.5778 40.1627 91.1751 40.008 91.8151 40.008ZM105.813 44.376C105.813 44.696 105.791 44.984 105.749 45.24H99.2688C99.3221 45.88 99.5461 46.3813 99.9408 46.744C100.335 47.1067 100.821 47.288 101.397 47.288C102.229 47.288 102.821 46.9307 103.173 46.216H105.589C105.333 47.0693 104.842 47.7733 104.117 48.328C103.391 48.872 102.501 49.144 101.445 49.144C100.591 49.144 99.8234 48.9573 99.1408 48.584C98.4688 48.2 97.9408 47.6613 97.5568 46.968C97.1834 46.2747 96.9967 45.4747 96.9967 44.568C96.9967 43.6507 97.1834 42.8453 97.5568 42.152C97.9301 41.4587 98.4528 40.9253 99.1248 40.552C99.7968 40.1787 100.57 39.992 101.445 39.992C102.287 39.992 103.039 40.1733 103.701 40.536C104.373 40.8987 104.89 41.416 105.253 42.088C105.626 42.7493 105.813 43.512 105.813 44.376ZM103.493 43.736C103.482 43.16 103.274 42.7013 102.869 42.36C102.463 42.008 101.967 41.832 101.381 41.832C100.826 41.832 100.357 42.0027 99.9728 42.344C99.5994 42.6747 99.3701 43.1387 99.2848 43.736H103.493ZM109.688 41.512C109.976 41.0427 110.349 40.6747 110.808 40.408C111.277 40.1413 111.81 40.008 112.408 40.008V42.36H111.816C111.112 42.36 110.578 42.5253 110.216 42.856C109.864 43.1867 109.688 43.7627 109.688 44.584V49H107.448V40.136H109.688V41.512ZM115.053 39.08C114.658 39.08 114.327 38.9573 114.061 38.712C113.805 38.456 113.677 38.1413 113.677 37.768C113.677 37.3947 113.805 37.0853 114.061 36.84C114.327 36.584 114.658 36.456 115.053 36.456C115.447 36.456 115.773 36.584 116.029 36.84C116.295 37.0853 116.429 37.3947 116.429 37.768C116.429 38.1413 116.295 38.456 116.029 38.712C115.773 38.9573 115.447 39.08 115.053 39.08ZM116.157 40.136V49H113.917V40.136H116.157ZM123.282 40.008C124.338 40.008 125.191 40.344 125.842 41.016C126.492 41.6773 126.818 42.6053 126.818 43.8V49H124.578V44.104C124.578 43.4 124.402 42.8613 124.05 42.488C123.698 42.104 123.218 41.912 122.61 41.912C121.991 41.912 121.5 42.104 121.138 42.488C120.786 42.8613 120.61 43.4 120.61 44.104V49H118.37V40.136H120.61V41.24C120.908 40.856 121.287 40.5573 121.746 40.344C122.215 40.12 122.727 40.008 123.282 40.008ZM131.556 41.976V46.264C131.556 46.5627 131.625 46.7813 131.764 46.92C131.913 47.048 132.158 47.112 132.5 47.112H133.54V49H132.132C130.244 49 129.3 48.0827 129.3 46.248V41.976H128.244V40.136H129.3V37.944H131.556V40.136H133.54V41.976H131.556ZM134.575 44.536C134.575 43.64 134.751 42.8453 135.103 42.152C135.466 41.4587 135.951 40.9253 136.559 40.552C137.178 40.1787 137.866 39.992 138.623 39.992C139.284 39.992 139.86 40.1253 140.351 40.392C140.852 40.6587 141.252 40.9947 141.551 41.4V40.136H143.807V49H141.551V47.704C141.263 48.12 140.863 48.4667 140.351 48.744C139.85 49.0107 139.268 49.144 138.607 49.144C137.86 49.144 137.178 48.952 136.559 48.568C135.951 48.184 135.466 47.6453 135.103 46.952C134.751 46.248 134.575 45.4427 134.575 44.536ZM141.551 44.568C141.551 44.024 141.444 43.56 141.231 43.176C141.018 42.7813 140.73 42.4827 140.367 42.28C140.004 42.0667 139.615 41.96 139.199 41.96C138.783 41.96 138.399 42.0613 138.047 42.264C137.695 42.4667 137.407 42.7653 137.183 43.16C136.97 43.544 136.863 44.0027 136.863 44.536C136.863 45.0693 136.97 45.5387 137.183 45.944C137.407 46.3387 137.695 46.6427 138.047 46.856C138.41 47.0693 138.794 47.176 139.199 47.176C139.615 47.176 140.004 47.0747 140.367 46.872C140.73 46.6587 141.018 46.36 141.231 45.976C141.444 45.5813 141.551 45.112 141.551 44.568ZM150.987 40.008C151.659 40.008 152.256 40.1573 152.779 40.456C153.301 40.744 153.707 41.176 153.995 41.752C154.293 42.3173 154.443 43 154.443 43.8V49H152.203V44.104C152.203 43.4 152.027 42.8613 151.675 42.488C151.323 42.104 150.843 41.912 150.235 41.912C149.616 41.912 149.125 42.104 148.763 42.488C148.411 42.8613 148.235 43.4 148.235 44.104V49H145.995V37.16H148.235V41.24C148.523 40.856 148.907 40.5573 149.387 40.344C149.867 40.12 150.4 40.008 150.987 40.008ZM166.689 49L162.625 44.024V49H160.385V37.832H162.625V42.84L166.689 37.832H169.393L164.785 43.368L169.521 49H166.689ZM174.931 49.144C174.077 49.144 173.309 48.9573 172.627 48.584C171.944 48.2 171.405 47.6613 171.011 46.968C170.627 46.2747 170.435 45.4747 170.435 44.568C170.435 43.6613 170.632 42.8613 171.027 42.168C171.432 41.4747 171.981 40.9413 172.675 40.568C173.368 40.184 174.141 39.992 174.995 39.992C175.848 39.992 176.621 40.184 177.315 40.568C178.008 40.9413 178.552 41.4747 178.947 42.168C179.352 42.8613 179.555 43.6613 179.555 44.568C179.555 45.4747 179.347 46.2747 178.931 46.968C178.525 47.6613 177.971 48.2 177.267 48.584C176.573 48.9573 175.795 49.144 174.931 49.144ZM174.931 47.192C175.336 47.192 175.715 47.096 176.067 46.904C176.429 46.7013 176.717 46.4027 176.931 46.008C177.144 45.6133 177.251 45.1333 177.251 44.568C177.251 43.7253 177.027 43.08 176.579 42.632C176.141 42.1733 175.603 41.944 174.963 41.944C174.323 41.944 173.784 42.1733 173.347 42.632C172.92 43.08 172.707 43.7253 172.707 44.568C172.707 45.4107 172.915 46.0613 173.331 46.52C173.757 46.968 174.291 47.192 174.931 47.192ZM183.806 41.976V46.264C183.806 46.5627 183.875 46.7813 184.014 46.92C184.163 47.048 184.408 47.112 184.75 47.112H185.79V49H184.382C182.494 49 181.55 48.0827 181.55 46.248V41.976H180.494V40.136H181.55V37.944H183.806V40.136H185.79V41.976H183.806ZM186.825 44.536C186.825 43.64 187.001 42.8453 187.353 42.152C187.716 41.4587 188.201 40.9253 188.809 40.552C189.428 40.1787 190.116 39.992 190.873 39.992C191.534 39.992 192.11 40.1253 192.601 40.392C193.102 40.6587 193.502 40.9947 193.801 41.4V40.136H196.057V49H193.801V47.704C193.513 48.12 193.113 48.4667 192.601 48.744C192.1 49.0107 191.518 49.144 190.857 49.144C190.11 49.144 189.428 48.952 188.809 48.568C188.201 48.184 187.716 47.6453 187.353 46.952C187.001 46.248 186.825 45.4427 186.825 44.536ZM193.801 44.568C193.801 44.024 193.694 43.56 193.481 43.176C193.268 42.7813 192.98 42.4827 192.617 42.28C192.254 42.0667 191.865 41.96 191.449 41.96C191.033 41.96 190.649 42.0613 190.297 42.264C189.945 42.4667 189.657 42.7653 189.433 43.16C189.22 43.544 189.113 44.0027 189.113 44.536C189.113 45.0693 189.22 45.5387 189.433 45.944C189.657 46.3387 189.945 46.6427 190.297 46.856C190.66 47.0693 191.044 47.176 191.449 47.176C191.865 47.176 192.254 47.0747 192.617 46.872C192.98 46.6587 193.268 46.36 193.481 45.976C193.694 45.5813 193.801 45.112 193.801 44.568ZM214.233 37.832V49H211.993V41.736L209.001 49H207.305L204.297 41.736V49H202.057V37.832H204.601L208.153 46.136L211.705 37.832H214.233ZM215.872 44.536C215.872 43.64 216.048 42.8453 216.4 42.152C216.762 41.4587 217.248 40.9253 217.856 40.552C218.474 40.1787 219.162 39.992 219.92 39.992C220.581 39.992 221.157 40.1253 221.648 40.392C222.149 40.6587 222.549 40.9947 222.848 41.4V40.136H225.104V49H222.848V47.704C222.56 48.12 222.16 48.4667 221.648 48.744C221.146 49.0107 220.565 49.144 219.904 49.144C219.157 49.144 218.474 48.952 217.856 48.568C217.248 48.184 216.762 47.6453 216.4 46.952C216.048 46.248 215.872 45.4427 215.872 44.536ZM222.848 44.568C222.848 44.024 222.741 43.56 222.528 43.176C222.314 42.7813 222.026 42.4827 221.664 42.28C221.301 42.0667 220.912 41.96 220.496 41.96C220.08 41.96 219.696 42.0613 219.344 42.264C218.992 42.4667 218.704 42.7653 218.48 43.16C218.266 43.544 218.16 44.0027 218.16 44.536C218.16 45.0693 218.266 45.5387 218.48 45.944C218.704 46.3387 218.992 46.6427 219.344 46.856C219.706 47.0693 220.09 47.176 220.496 47.176C220.912 47.176 221.301 47.0747 221.664 46.872C222.026 46.6587 222.314 46.36 222.528 45.976C222.741 45.5813 222.848 45.112 222.848 44.568ZM229.532 37.16V49H227.292V37.16H229.532ZM231.169 44.536C231.169 43.64 231.345 42.8453 231.697 42.152C232.059 41.4587 232.545 40.9253 233.153 40.552C233.771 40.1787 234.459 39.992 235.217 39.992C235.878 39.992 236.454 40.1253 236.945 40.392C237.446 40.6587 237.846 40.9947 238.145 41.4V40.136H240.401V49H238.145V47.704C237.857 48.12 237.457 48.4667 236.945 48.744C236.443 49.0107 235.862 49.144 235.201 49.144C234.454 49.144 233.771 48.952 233.153 48.568C232.545 48.184 232.059 47.6453 231.697 46.952C231.345 46.248 231.169 45.4427 231.169 44.536ZM238.145 44.568C238.145 44.024 238.038 43.56 237.825 43.176C237.611 42.7813 237.323 42.4827 236.961 42.28C236.598 42.0667 236.209 41.96 235.793 41.96C235.377 41.96 234.993 42.0613 234.641 42.264C234.289 42.4667 234.001 42.7653 233.777 43.16C233.563 43.544 233.457 44.0027 233.457 44.536C233.457 45.0693 233.563 45.5387 233.777 45.944C234.001 46.3387 234.289 46.6427 234.641 46.856C235.003 47.0693 235.387 47.176 235.793 47.176C236.209 47.176 236.598 47.0747 236.961 46.872C237.323 46.6587 237.611 46.36 237.825 45.976C238.038 45.5813 238.145 45.112 238.145 44.568ZM247.5 40.008C248.556 40.008 249.41 40.344 250.06 41.016C250.711 41.6773 251.036 42.6053 251.036 43.8V49H248.796V44.104C248.796 43.4 248.62 42.8613 248.268 42.488C247.916 42.104 247.436 41.912 246.828 41.912C246.21 41.912 245.719 42.104 245.356 42.488C245.004 42.8613 244.828 43.4 244.828 44.104V49H242.588V40.136H244.828V41.24C245.127 40.856 245.506 40.5573 245.964 40.344C246.434 40.12 246.946 40.008 247.5 40.008ZM256.639 39.992C257.3 39.992 257.881 40.1253 258.383 40.392C258.884 40.648 259.279 40.984 259.567 41.4V40.136H261.823V49.064C261.823 49.8853 261.657 50.616 261.327 51.256C260.996 51.9067 260.5 52.4187 259.839 52.792C259.177 53.176 258.377 53.368 257.439 53.368C256.18 53.368 255.145 53.0747 254.335 52.488C253.535 51.9013 253.081 51.1013 252.975 50.088H255.199C255.316 50.4933 255.567 50.8133 255.951 51.048C256.345 51.2933 256.82 51.416 257.375 51.416C258.025 51.416 258.553 51.2187 258.959 50.824C259.364 50.44 259.567 49.8533 259.567 49.064V47.688C259.279 48.104 258.879 48.4507 258.367 48.728C257.865 49.0053 257.289 49.144 256.639 49.144C255.892 49.144 255.209 48.952 254.591 48.568C253.972 48.184 253.481 47.6453 253.118 46.952C252.766 46.248 252.59 45.4427 252.59 44.536C252.59 43.64 252.766 42.8453 253.118 42.152C253.481 41.4587 253.967 40.9253 254.575 40.552C255.193 40.1787 255.881 39.992 256.639 39.992ZM259.567 44.568C259.567 44.024 259.46 43.56 259.247 43.176C259.033 42.7813 258.745 42.4827 258.383 42.28C258.02 42.0667 257.631 41.96 257.215 41.96C256.799 41.96 256.415 42.0613 256.062 42.264C255.711 42.4667 255.423 42.7653 255.199 43.16C254.985 43.544 254.879 44.0027 254.879 44.536C254.879 45.0693 254.985 45.5387 255.199 45.944C255.423 46.3387 255.711 46.6427 256.062 46.856C256.425 47.0693 256.809 47.176 257.215 47.176C257.631 47.176 258.02 47.0747 258.383 46.872C258.745 46.6587 259.033 46.36 259.247 45.976C259.46 45.5813 259.567 45.112 259.567 44.568Z" fill="url(#paint0_linear_2572_291)"/>
<path d="M64.6953 26.6H254.495V27.4H64.6953V26.6Z" fill="url(#paint1_linear_2572_291)"/>
</g>
<path d="M1.60507 8.16697C2.35536 5.72431 4.94376 4.35237 7.38642 5.10266L33.4903 13.1207C38.8806 14.7764 42.5637 19.7503 42.5749 25.3891L23.1204 20.4942L4.48186 13.8863C2.14583 13.0581 0.877334 10.5362 1.60507 8.16697Z" fill="white"/>
<circle cx="31.7675" cy="30.7257" r="16.9922" transform="rotate(17.0749 31.7675 30.7257)" fill="white"/>
<circle cx="31.6996" cy="30.5979" r="8.49612" transform="rotate(17.0749 31.6996 30.5979)" fill="url(#paint2_linear_2572_291)"/>
<rect x="26.9048" y="2.02905" width="5.32287" height="8.18903" rx="2.66143" transform="rotate(-13.9325 26.9048 2.02905)" fill="white"/>
<rect width="5.32287" height="8.18903" rx="2.66143" transform="matrix(-0.668063 -0.744105 -0.744105 0.668063 51.5502 9.47339)" fill="white"/>
<rect x="38.1174" width="5.32287" height="8.18903" rx="2.66143" transform="rotate(17.0749 38.1174 0)" fill="white"/>
<defs>
<filter id="filter0_d_2572_291" x="51.1978" y="12.456" width="220.625" height="62.912" filterUnits="userSpaceOnUse" color-interpolation-filters="sRGB">
<feFlood flood-opacity="0" result="BackgroundImageFix"/>
<feColorMatrix in="SourceAlpha" type="matrix" values="0 0 0 0 0 0 0 0 0 0 0 0 0 0 0 0 0 0 127 0" result="hardAlpha"/>
<feOffset dy="12"/>
<feGaussianBlur stdDeviation="5"/>
<feComposite in2="hardAlpha" operator="out"/>
<feColorMatrix type="matrix" values="0 0 0 0 0 0 0 0 0 0 0 0 0 0 0 0 0 0 0.25 0"/>
<feBlend mode="normal" in2="BackgroundImageFix" result="effect1_dropShadow_2572_291"/>
<feBlend mode="normal" in="SourceGraphic" in2="effect1_dropShadow_2572_291" result="shape"/>
</filter>
<linearGradient id="paint0_linear_2572_291" x1="63.2019" y1="25.25" x2="269.721" y2="26.4802" gradientUnits="userSpaceOnUse">
<stop offset="0.122917" stop-color="white"/>
<stop offset="0.58747" stop-color="#049EDB"/>
<stop offset="0.931035" stop-color="#95CF81"/>
</linearGradient>
<linearGradient id="paint1_linear_2572_291" x1="63.2019" y1="25.25" x2="269.721" y2="26.4802" gradientUnits="userSpaceOnUse">
<stop offset="0.122917" stop-color="white"/>
<stop offset="0.58747" stop-color="#049EDB"/>
<stop offset="0.931035" stop-color="#95CF81"/>
</linearGradient>
<linearGradient id="paint2_linear_2572_291" x1="31.6996" y1="22.1018" x2="31.6996" y2="39.094" gradientUnits="userSpaceOnUse">
<stop stop-color="#95CF81"/>
<stop offset="1" stop-color="#049EDB"/>
</linearGradient>
</defs>
</svg>
