<svg width="1440" height="98" viewBox="0 0 1440 98" fill="none" xmlns="http://www.w3.org/2000/svg">
<g opacity="0.24">
<path d="M-183.449 57.1509L-183.35 76.8036C-183.35 76.8036 53.0862 -19.8329 326.86 58.0327C565.67 125.954 771.056 91.9286 917.331 67.6959L917.333 67.6955C938.748 64.1478 958.896 60.81 977.696 58.0327C1270.95 14.7114 1442 76.8036 1442 76.8036L1441.99 73.9926C1440.15 73.0638 1262.15 -16.633 964.047 28.526C944.766 31.4469 924.109 34.9596 902.158 38.6925C752.853 64.0818 543.639 99.6585 299.755 28.526C82.9318 -34.7137 -108.366 26.442 -183.449 57.1509Z" fill="#25ADD7" fill-opacity="0.65"/>
<path d="M-183.369 57.1181L-183.351 60.8037C-183.351 60.8037 53.0859 -35.8328 326.86 42.0329C565.67 109.954 771.056 75.9287 917.33 51.6961C938.746 48.1482 958.895 44.8102 977.696 42.0329C1124.32 20.3723 1240.4 25.0649 1319.82 35.1727C1237.68 17.6211 1116.59 5.41768 964.047 28.526C944.766 31.4469 924.109 34.9596 902.158 38.6925C752.853 64.0818 543.639 99.6585 299.755 28.526C83.009 -34.6912 -108.23 26.3985 -183.369 57.1181Z" fill="#95CF81"/>
</g>
</svg>
