<svg width="21" height="21" viewBox="0 0 21 21" fill="none" xmlns="http://www.w3.org/2000/svg">
<path d="M5.64657 14.4799C5.4513 14.6752 5.4513 14.9918 5.64657 15.1871C5.84183 15.3823 6.15841 15.3823 6.35367 15.1871L5.64657 14.4799ZM10.7704 10.7703C10.9657 10.5751 10.9657 10.2585 10.7704 10.0632C10.5751 9.86795 10.2586 9.86795 10.0633 10.0632L10.7704 10.7703ZM10.0631 10.0632C9.86779 10.2584 9.86779 10.575 10.0631 10.7703C10.2583 10.9656 10.5749 10.9656 10.7702 10.7703L10.0631 10.0632ZM15.1869 6.35355C15.3822 6.15829 15.3822 5.84171 15.1869 5.64645C14.9916 5.45118 14.6751 5.45118 14.4798 5.64645L15.1869 6.35355ZM10.7702 10.0632C10.5749 9.86795 10.2583 9.86795 10.0631 10.0632C9.86779 10.2585 9.86779 10.5751 10.0631 10.7703L10.7702 10.0632ZM14.4798 15.1871C14.6751 15.3823 14.9916 15.3823 15.1869 15.1871C15.3822 14.9918 15.3822 14.6752 15.1869 14.4799L14.4798 15.1871ZM10.0632 10.7703C10.2584 10.9656 10.575 10.9656 10.7703 10.7703C10.9656 10.575 10.9656 10.2584 10.7703 10.0632L10.0632 10.7703ZM6.35355 5.64645C6.15829 5.45118 5.84171 5.45118 5.64645 5.64645C5.45118 5.84171 5.45118 6.15829 5.64645 6.35355L6.35355 5.64645ZM6.35367 15.1871L10.7704 10.7703L10.0633 10.0632L5.64657 14.4799L6.35367 15.1871ZM10.7702 10.7703L15.1869 6.35355L14.4798 5.64645L10.0631 10.0632L10.7702 10.7703ZM10.0631 10.7703L14.4798 15.1871L15.1869 14.4799L10.7702 10.0632L10.0631 10.7703ZM10.7703 10.0632L6.35355 5.64645L5.64645 6.35355L10.0632 10.7703L10.7703 10.0632Z" fill="white"/>
<rect x="0.5" y="0.5" width="20" height="20" rx="4.5" stroke="white"/>
</svg>
