<svg width="21" height="21" viewBox="0 0 21 21" fill="none" xmlns="http://www.w3.org/2000/svg">
<path d="M0.93934 17.9393C0.353553 18.5251 0.353553 19.4749 0.93934 20.0607C1.52513 20.6464 2.47487 20.6464 3.06066 20.0607L0.93934 17.9393ZM11.5607 11.5607C12.1464 10.9749 12.1464 10.0251 11.5607 9.43934C10.9749 8.85355 10.0251 8.85355 9.43934 9.43934L11.5607 11.5607ZM9.43934 9.43934C8.85355 10.0251 8.85355 10.9749 9.43934 11.5607C10.0251 12.1464 10.9749 12.1464 11.5607 11.5607L9.43934 9.43934ZM20.0607 3.06066C20.6464 2.47487 20.6464 1.52513 20.0607 0.93934C19.4749 0.353553 18.5251 0.353553 17.9393 0.93934L20.0607 3.06066ZM11.5607 9.43934C10.9749 8.85355 10.0251 8.85355 9.43934 9.43934C8.85355 10.0251 8.85355 10.9749 9.43934 11.5607L11.5607 9.43934ZM17.9393 20.0607C18.5251 20.6464 19.4749 20.6464 20.0607 20.0607C20.6464 19.4749 20.6464 18.5251 20.0607 17.9393L17.9393 20.0607ZM9.43934 11.5607C10.0251 12.1464 10.9749 12.1464 11.5607 11.5607C12.1464 10.9749 12.1464 10.0251 11.5607 9.43934L9.43934 11.5607ZM3.06066 0.93934C2.47487 0.353553 1.52513 0.353553 0.93934 0.93934C0.353553 1.52513 0.353553 2.47487 0.93934 3.06066L3.06066 0.93934ZM3.06066 20.0607L11.5607 11.5607L9.43934 9.43934L0.93934 17.9393L3.06066 20.0607ZM11.5607 11.5607L20.0607 3.06066L17.9393 0.93934L9.43934 9.43934L11.5607 11.5607ZM9.43934 11.5607L17.9393 20.0607L20.0607 17.9393L11.5607 9.43934L9.43934 11.5607ZM11.5607 9.43934L3.06066 0.93934L0.93934 3.06066L9.43934 11.5607L11.5607 9.43934Z" fill="white"/>
</svg>
