<svg width="60" height="30" viewBox="0 0 60 30" fill="none" xmlns="http://www.w3.org/2000/svg">
<path d="M2.85636 14.3394C2.35346 13.8665 1.56238 13.8907 1.08942 14.3936C0.61647 14.8965 0.640743 15.6876 1.14364 16.1606L2.85636 14.3394ZM16.0889 28.5L15.2325 29.4106C15.7137 29.8631 16.464 29.8631 16.9452 29.4106L16.0889 28.5ZM45.123 2.91058C45.6259 2.43762 45.6501 1.64654 45.1772 1.14364C44.7042 0.640743 43.9131 0.61647 43.4102 1.08942L45.123 2.91058ZM16.9448 14.3394C16.4419 13.8665 15.6508 13.8907 15.1779 14.3936C14.7049 14.8965 14.7292 15.6876 15.2321 16.1606L16.9448 14.3394ZM30.1773 28.5L29.321 29.4106C29.8022 29.8631 30.5525 29.8631 31.0337 29.4106L30.1773 28.5ZM59.2114 2.91058C59.7143 2.43762 59.7386 1.64654 59.2656 1.14364C58.7927 0.640743 58.0016 0.61647 57.4987 1.08942L59.2114 2.91058ZM1.14364 16.1606L15.2325 29.4106L16.9452 27.5894L2.85636 14.3394L1.14364 16.1606ZM16.9452 29.4106L45.123 2.91058L43.4102 1.08942L15.2325 27.5894L16.9452 29.4106ZM15.2321 16.1606L29.321 29.4106L31.0337 27.5894L16.9448 14.3394L15.2321 16.1606ZM31.0337 29.4106L59.2114 2.91058L57.4987 1.08942L29.321 27.5894L31.0337 29.4106Z" fill="white"/>
</svg>
