<svg width="11" height="12" viewBox="0 0 11 12" fill="none" xmlns="http://www.w3.org/2000/svg">
<path d="M4.25146 11.1415C4.05347 11.334 4.04901 11.6505 4.2415 11.8485C4.434 12.0465 4.75055 12.051 4.94854 11.8585L4.25146 11.1415ZM10 6.25L10.3485 6.6085C10.4454 6.51436 10.5 6.38505 10.5 6.25C10.5 6.11495 10.4454 5.98564 10.3485 5.8915L10 6.25ZM4.94854 0.641503C4.75055 0.449011 4.434 0.453469 4.2415 0.651462C4.04901 0.849454 4.05347 1.16601 4.25146 1.3585L4.94854 0.641503ZM0.651471 10.2662C0.453473 10.4587 0.449005 10.7753 0.641493 10.9733C0.83398 11.1713 1.15053 11.1758 1.34853 10.9833L0.651471 10.2662ZM5.5 6.25001L5.84853 6.60851C5.94536 6.51437 6 6.38506 6 6.25001C6 6.11495 5.94536 5.98564 5.84853 5.8915L5.5 6.25001ZM1.34853 1.51675C1.15053 1.32426 0.83398 1.32873 0.641493 1.52673C0.449005 1.72473 0.453473 2.04128 0.651471 2.23376L1.34853 1.51675ZM4.94854 11.8585L10.3485 6.6085L9.65146 5.8915L4.25146 11.1415L4.94854 11.8585ZM10.3485 5.8915L4.94854 0.641503L4.25146 1.3585L9.65146 6.6085L10.3485 5.8915ZM1.34853 10.9833L5.84853 6.60851L5.15147 5.8915L0.651471 10.2662L1.34853 10.9833ZM5.84853 5.8915L1.34853 1.51675L0.651471 2.23376L5.15147 6.60851L5.84853 5.8915Z" fill="black"/>
</svg>
