<svg width="18" height="19" viewBox="0 0 18 19" fill="none" xmlns="http://www.w3.org/2000/svg">
<path fill-rule="evenodd" clip-rule="evenodd" d="M5.8824 1.00001H12.1395C12.2045 1.00001 12.2691 1.00416 12.3333 1.01248C14.8803 1.19059 16.858 3.30429 16.8667 5.85747V13.1437C16.8573 15.832 14.6726 18.005 11.9843 18H5.8824C3.19358 18.005 1.00875 15.8314 1 13.1425V5.85747C1.00875 3.16866 3.19358 0.994992 5.8824 1.00001Z" stroke="black" stroke-width="1.5" stroke-linecap="round" stroke-linejoin="round"/>
<path d="M12.3331 15.35C12.7473 15.35 13.0831 15.0143 13.0831 14.6C13.0831 14.1858 12.7473 13.85 12.3331 13.85V15.35ZM5.53309 13.85C5.11887 13.85 4.78309 14.1858 4.78309 14.6C4.78309 15.0143 5.11887 15.35 5.53309 15.35V13.85ZM16.8666 6.60745C17.2808 6.60745 17.6166 6.27166 17.6166 5.85745C17.6166 5.44324 17.2808 5.10745 16.8666 5.10745V6.60745ZM12.3332 5.85745H11.5832C11.5832 6.27166 11.919 6.60745 12.3332 6.60745V5.85745ZM13.0832 1.01245C13.0832 0.598238 12.7474 0.262451 12.3332 0.262451C11.919 0.262451 11.5832 0.598238 11.5832 1.01245H13.0832ZM11.7301 9.46359C12.023 9.1707 12.023 8.69582 11.7301 8.40293C11.4372 8.11004 10.9623 8.11004 10.6695 8.40293L11.7301 9.46359ZM8.40279 10.6696C8.10989 10.9625 8.10989 11.4374 8.40279 11.7303C8.69568 12.0231 9.17055 12.0231 9.46345 11.7303L8.40279 10.6696ZM8.40284 11.7303C8.69573 12.0231 9.1706 12.0231 9.4635 11.7303C9.75639 11.4374 9.75639 10.9625 9.4635 10.6696L8.40284 11.7303ZM7.19683 8.40293C6.90394 8.11004 6.42906 8.11004 6.13617 8.40293C5.84328 8.69582 5.84328 9.1707 6.13617 9.46359L7.19683 8.40293ZM8.18311 11.2C8.18311 11.6142 8.5189 11.95 8.93311 11.95C9.34733 11.95 9.68311 11.6142 9.68311 11.2H8.18311ZM9.68311 4.40003C9.68311 3.98582 9.34733 3.65003 8.93311 3.65003C8.5189 3.65003 8.18311 3.98582 8.18311 4.40003H9.68311ZM12.3331 13.85H5.53309V15.35H12.3331V13.85ZM16.8666 5.10745H12.3332V6.60745H16.8666V5.10745ZM13.0832 5.85745V1.01245H11.5832V5.85745H13.0832ZM10.6695 8.40293L8.40279 10.6696L9.46345 11.7303L11.7301 9.46359L10.6695 8.40293ZM9.4635 10.6696L7.19683 8.40293L6.13617 9.46359L8.40284 11.7303L9.4635 10.6696ZM9.68311 11.2V4.40003H8.18311V11.2H9.68311Z" fill="black"/>
</svg>
