<svg width="12" height="12" viewBox="0 0 12 12" fill="none" xmlns="http://www.w3.org/2000/svg">
<path d="M1.5 8.14286C1.5 7.86671 1.27614 7.64286 1 7.64286C0.723858 7.64286 0.5 7.86671 0.5 8.14286H1.5ZM1 8.85714H0.5H1ZM11.5 8.14286C11.5 7.86671 11.2761 7.64286 11 7.64286C10.7239 7.64286 10.5 7.86671 10.5 8.14286H11.5ZM5.60957 8.5448C5.43706 8.76043 5.47202 9.07507 5.68765 9.24758C5.90328 9.42008 6.21793 9.38512 6.39043 9.16949L5.60957 8.5448ZM9.24758 5.59806C9.42008 5.38243 9.38512 5.06778 9.16949 4.89528C8.95386 4.72277 8.63921 4.75774 8.46671 4.97337L9.24758 5.59806ZM5.60957 9.16949C5.78207 9.38512 6.09672 9.42008 6.31235 9.24758C6.52798 9.07507 6.56294 8.76043 6.39043 8.5448L5.60957 9.16949ZM3.53329 4.97337C3.36079 4.75774 3.04614 4.72277 2.83051 4.89528C2.61488 5.06778 2.57992 5.38243 2.75242 5.59806L3.53329 4.97337ZM5.5 8.85714C5.5 9.13329 5.72386 9.35714 6 9.35714C6.27614 9.35714 6.5 9.13329 6.5 8.85714H5.5ZM6.5 1C6.5 0.723858 6.27614 0.5 6 0.5C5.72386 0.5 5.5 0.723858 5.5 1H6.5ZM0.5 8.14286V8.85714H1.5V8.14286H0.5ZM0.5 8.85714C0.5 10.3168 1.68325 11.5 3.14286 11.5V10.5C2.23553 10.5 1.5 9.76447 1.5 8.85714H0.5ZM3.14286 11.5H8.85714V10.5H3.14286V11.5ZM8.85714 11.5C10.3168 11.5 11.5 10.3168 11.5 8.85714H10.5C10.5 9.76447 9.76447 10.5 8.85714 10.5V11.5ZM11.5 8.85714V8.14286H10.5V8.85714H11.5ZM6.39043 9.16949L9.24758 5.59806L8.46671 4.97337L5.60957 8.5448L6.39043 9.16949ZM6.39043 8.5448L3.53329 4.97337L2.75242 5.59806L5.60957 9.16949L6.39043 8.5448ZM6.5 8.85714V1H5.5V8.85714H6.5Z" fill="black"/>
</svg>
