<svg width="13" height="16" viewBox="0 0 13 16" fill="none" xmlns="http://www.w3.org/2000/svg">
<path d="M5.75 11.5001C5.75 11.9143 6.08579 12.2501 6.5 12.2501C6.91421 12.2501 7.25 11.9143 7.25 11.5001H5.75ZM7.25 9.75013C7.25 9.33591 6.91421 9.00013 6.5 9.00013C6.08579 9.00013 5.75 9.33591 5.75 9.75013H7.25ZM2.542 5.13913C2.542 5.55334 2.87779 5.88913 3.292 5.88913C3.70621 5.88913 4.042 5.55334 4.042 5.13913H2.542ZM3.292 4.15013L2.542 4.14308V4.15013H3.292ZM6.5 1.00013L6.49336 1.75022L6.50664 1.7501L6.5 1.00013ZM9.708 4.15013H10.458L10.458 4.14308L9.708 4.15013ZM8.958 5.13913C8.958 5.55334 9.29379 5.88913 9.708 5.88913C10.1222 5.88913 10.458 5.55334 10.458 5.13913H8.958ZM3.6558 5.79443C4.01772 5.59295 4.14778 5.13624 3.9463 4.77432C3.74483 4.41241 3.28811 4.28235 2.9262 4.48383L3.6558 5.79443ZM1 9.00013L0.25 8.99395V9.00013H1ZM1 10.5001H0.25C0.25 10.5061 0.250071 10.512 0.250213 10.518L1 10.5001ZM5.714 15.0001V14.2501C5.70834 14.2501 5.70269 14.2502 5.69703 14.2503L5.714 15.0001ZM7.286 15.0001L7.30297 14.2503C7.29731 14.2502 7.29166 14.2501 7.286 14.2501V15.0001ZM12 10.5001L12.7498 10.518C12.7499 10.512 12.75 10.5061 12.75 10.5001H12ZM12 9.00013H12.75L12.75 8.99386L12 9.00013ZM10.0726 4.48373C9.71067 4.28235 9.25399 4.41253 9.05261 4.77449C8.85122 5.13646 8.9814 5.59314 9.34337 5.79452L10.0726 4.48373ZM2.91932 4.4877C2.55955 4.69297 2.4343 5.15103 2.63957 5.5108C2.84484 5.87058 3.3029 5.99582 3.66268 5.79055L2.91932 4.4877ZM5.714 4.50013L5.71191 5.25013H5.714V4.50013ZM7.286 4.50013V5.25013L7.28809 5.25012L7.286 4.50013ZM9.33732 5.79055C9.6971 5.99582 10.1552 5.87058 10.3604 5.5108C10.5657 5.15103 10.4404 4.69297 10.0807 4.4877L9.33732 5.79055ZM7.25 11.5001V9.75013H5.75V11.5001H7.25ZM4.042 5.13913V4.15013H2.542V5.13913H4.042ZM4.04197 4.15717C4.05457 2.8157 5.15188 1.73823 6.49336 1.7501L6.50664 0.250157C4.33708 0.230957 2.56242 1.97354 2.54203 4.14308L4.04197 4.15717ZM6.50664 1.7501C7.84812 1.73823 8.94543 2.8157 8.95803 4.15717L10.458 4.14308C10.4376 1.97354 8.66292 0.230957 6.49336 0.250157L6.50664 1.7501ZM8.958 4.15013V5.13913H10.458V4.15013H8.958ZM2.9262 4.48383C1.28752 5.39607 0.265466 7.11853 0.250025 8.99395L1.74997 9.0063C1.76097 7.67072 2.48882 6.44408 3.6558 5.79443L2.9262 4.48383ZM0.25 9.00013V10.5001H1.75V9.00013H0.25ZM0.250213 10.518C0.32067 13.4754 2.77343 15.8169 5.73097 15.7499L5.69703 14.2503C3.56701 14.2985 1.80053 12.6122 1.74979 10.4823L0.250213 10.518ZM5.714 15.7501H7.286V14.2501H5.714V15.7501ZM7.26903 15.7499C10.2266 15.8169 12.6793 13.4754 12.7498 10.518L11.2502 10.4823C11.1995 12.6122 9.43299 14.2985 7.30297 14.2503L7.26903 15.7499ZM12.75 10.5001V9.00013H11.25V10.5001H12.75ZM12.75 8.99386C12.7343 7.11819 11.7118 5.39568 10.0726 4.48373L9.34337 5.79452C10.5107 6.44396 11.2389 7.67064 11.25 9.0064L12.75 8.99386ZM3.66268 5.79055C4.2868 5.43445 4.99335 5.24812 5.71191 5.25012L5.71609 3.75013C4.7354 3.7474 3.77112 4.0017 2.91932 4.4877L3.66268 5.79055ZM5.714 5.25013H7.286V3.75013H5.714V5.25013ZM7.28809 5.25012C8.00665 5.24812 8.7132 5.43445 9.33732 5.79055L10.0807 4.4877C9.22888 4.0017 8.2646 3.7474 7.28391 3.75013L7.28809 5.25012Z" fill="black"/>
</svg>
