<svg width="12" height="11" viewBox="0 0 12 11" fill="none" xmlns="http://www.w3.org/2000/svg">
<path d="M3.04752 3.83311C3.23149 3.62717 3.21368 3.31109 3.00774 3.12712C2.80181 2.94315 2.48573 2.96096 2.30176 3.16689L3.04752 3.83311ZM0.626756 5.04189C0.442786 5.24783 0.460594 5.56391 0.66653 5.74788C0.872466 5.93185 1.18855 5.91404 1.37252 5.70811L0.626756 5.04189ZM1.37252 5.04189C1.18855 4.83596 0.872466 4.81815 0.66653 5.00212C0.460594 5.18609 0.442786 5.50217 0.626756 5.70811L1.37252 5.04189ZM2.30176 7.58311C2.48573 7.78904 2.80181 7.80685 3.00774 7.62288C3.21368 7.43891 3.23149 7.12283 3.04752 6.91689L2.30176 7.58311ZM0.999612 4.875C0.72347 4.875 0.499612 5.09886 0.499612 5.375C0.499612 5.65114 0.72347 5.875 0.999612 5.875V4.875ZM8.77739 5.875C9.05353 5.875 9.27739 5.65114 9.27739 5.375C9.27739 5.09886 9.05353 4.875 8.77739 4.875V5.875ZM2.30176 3.16689L0.626756 5.04189L1.37252 5.70811L3.04752 3.83311L2.30176 3.16689ZM0.626756 5.70811L2.30176 7.58311L3.04752 6.91689L1.37252 5.04189L0.626756 5.70811ZM0.999612 5.875L8.77739 5.875V4.875L0.999612 4.875V5.875Z" fill="black"/>
<path d="M4.33203 7.25C4.33203 8.63071 5.32695 9.75 6.55425 9.75H8.77648C10.0038 9.75 10.9987 8.63071 10.9987 7.25V3.5C10.9987 2.11929 10.0038 1 8.77648 1H6.55425C5.32695 1 4.33203 2.11929 4.33203 3.5" stroke="black" stroke-linecap="round" stroke-linejoin="round"/>
</svg>
