<svg width="10" height="13" viewBox="0 0 10 13" fill="none" xmlns="http://www.w3.org/2000/svg">
<path fill-rule="evenodd" clip-rule="evenodd" d="M7.05828 3.27133C7.05828 4.52575 6.04138 5.54266 4.78695 5.54266C3.53253 5.54266 2.51563 4.52575 2.51562 3.27133C2.51562 2.01691 3.53253 1 4.78695 1C5.38935 1 5.96707 1.2393 6.39303 1.66526C6.81898 2.09121 7.05828 2.66894 7.05828 3.27133Z" stroke="black" stroke-linecap="round" stroke-linejoin="round"/>
<path fill-rule="evenodd" clip-rule="evenodd" d="M6.72932 7.05688H2.84232C2.59795 7.05719 2.35535 7.09839 2.12458 7.17878C-0.532879 8.09564 1.99511 11.5995 4.78582 11.5995C7.57653 11.5995 10.1045 8.09564 7.4463 7.17878C7.21577 7.09848 6.97344 7.05728 6.72932 7.05688Z" stroke="black" stroke-linecap="round" stroke-linejoin="round"/>
</svg>
