<svg width="17" height="20" viewBox="0 0 17 20" fill="none" xmlns="http://www.w3.org/2000/svg">
<path d="M16.1736 2.53043C16.5432 2.40178 16.747 1.95735 16.6288 1.53777C16.5107 1.11819 16.1152 0.882339 15.7456 1.01099L16.1736 2.53043ZM2.06722 6.60642L2.27341 7.36885L2.2812 7.36614L2.06722 6.60642ZM1.40287 7.4752L0.707431 7.35265L0.707431 7.35265L1.40287 7.4752ZM1.8215 8.53481L1.43437 9.19265C1.47349 9.22239 1.5151 9.24767 1.55857 9.2681L1.8215 8.53481ZM7.89342 12.2449C8.25326 12.414 8.66268 12.2228 8.80789 11.8178C8.9531 11.4128 8.77911 10.9475 8.41928 10.7784L7.89342 12.2449ZM16.6061 1.89174C16.6833 1.46271 16.4375 1.04002 16.0572 0.947635C15.6769 0.855251 15.3061 1.12816 15.229 1.55719L16.6061 1.89174ZM13.0182 17.8501L12.3296 17.6828L12.3281 17.6919L13.0182 17.8501ZM12.3192 18.6832L12.4945 19.455L12.4945 19.455L12.3192 18.6832ZM11.3471 18.3146L10.7281 18.6822C10.7503 18.7292 10.7766 18.7736 10.8065 18.8148L11.3471 18.3146ZM8.73322 11.0977C8.54958 10.7087 8.1236 10.5579 7.78178 10.7609C7.43995 10.964 7.31171 11.444 7.49535 11.8331L8.73322 11.0977ZM16.4787 2.26622C16.7377 1.94299 16.7135 1.44031 16.4245 1.14346C16.1356 0.846607 15.6914 0.867993 15.4324 1.19123L16.4787 2.26622ZM7.60224 10.9622C7.34321 11.2854 7.36744 11.7881 7.65635 12.0849C7.94527 12.3818 8.38947 12.3604 8.6485 12.0372L7.60224 10.9622ZM15.7456 1.01099L1.85323 5.84669L2.2812 7.36614L16.1736 2.53043L15.7456 1.01099ZM1.86104 5.84403C1.24808 6.04852 0.798729 6.63614 0.707431 7.35265L2.0983 7.59775C2.11216 7.48904 2.18034 7.39984 2.2734 7.3688L1.86104 5.84403ZM0.707431 7.35265C0.616133 8.06917 0.899297 8.78587 1.43437 9.19265L2.20863 7.87698C2.12741 7.81523 2.08445 7.70647 2.0983 7.59775L0.707431 7.35265ZM1.55857 9.2681L7.89342 12.2449L8.41928 10.7784L2.08443 7.80153L1.55857 9.2681ZM15.229 1.55719L12.3297 17.6828L13.7068 18.0174L16.6061 1.89174L15.229 1.55719ZM12.3281 17.6919C12.3099 17.7997 12.2381 17.8852 12.1438 17.9114L12.4945 19.455C13.1154 19.2825 13.5883 18.719 13.7084 18.0083L12.3281 17.6919ZM12.1438 17.9114C12.0496 17.9376 11.9498 17.8998 11.8876 17.8143L10.8065 18.8148C11.2162 19.3783 11.8737 19.6276 12.4945 19.455L12.1438 17.9114ZM11.966 17.9469L8.73322 11.0977L7.49535 11.8331L10.7281 18.6822L11.966 17.9469ZM15.4324 1.19123L7.60224 10.9622L8.6485 12.0372L16.4787 2.26622L15.4324 1.19123Z" fill="white"/>
</svg>
