<svg width="33" height="41" viewBox="0 0 33 41" fill="none" xmlns="http://www.w3.org/2000/svg">
<path fill-rule="evenodd" clip-rule="evenodd" d="M12.5714 31.0713C12.1403 25.4211 7.65024 20.931 2 20.4999C7.65024 20.0688 12.1403 15.5787 12.5714 9.92847C13.0025 15.5787 17.4926 20.0688 23.1429 20.4999C17.4926 20.931 13.0025 25.4211 12.5714 31.0713V31.0713Z" stroke="white" stroke-width="3" stroke-linecap="round" stroke-linejoin="round"/>
<path fill-rule="evenodd" clip-rule="evenodd" d="M25.7857 38.9999C25.5696 36.175 23.3249 33.9303 20.5 33.7142C23.3249 33.4981 25.5696 31.2533 25.7857 28.4285C26.0018 31.2533 28.2466 33.4981 31.0714 33.7142C28.2466 33.9303 26.0018 36.175 25.7857 38.9999Z" stroke="white" stroke-width="3" stroke-linecap="round" stroke-linejoin="round"/>
<path fill-rule="evenodd" clip-rule="evenodd" d="M25.7857 2C25.5696 4.82487 23.3249 7.06961 20.5 7.28571C23.3249 7.50181 25.5696 9.74656 25.7857 12.5714C26.0018 9.74656 28.2466 7.50181 31.0714 7.28571C28.2466 7.06961 26.0018 4.82487 25.7857 2Z" stroke="white" stroke-width="3" stroke-linecap="round" stroke-linejoin="round"/>
</svg>
