<svg width="27" height="30" viewBox="0 0 27 30" fill="none" xmlns="http://www.w3.org/2000/svg">
<path d="M25 29.6668C25.6904 29.6668 26.25 29.1072 26.25 28.4168C26.25 27.7265 25.6904 27.1668 25 27.1668V29.6668ZM2 27.1668C1.30964 27.1668 0.75 27.7265 0.75 28.4168C0.75 29.1072 1.30964 29.6668 2 29.6668V27.1668ZM4.03541 28.4169C4.03541 29.1073 4.59506 29.6669 5.28541 29.6669C5.97577 29.6669 6.53541 29.1073 6.53541 28.4169H4.03541ZM5.28541 22.5481H6.53541C6.53541 22.5309 6.53506 22.5138 6.53435 22.4967L5.28541 22.5481ZM7.20208 19.031L6.63697 17.916C6.61369 17.9278 6.59079 17.9403 6.56829 17.9536L7.20208 19.031ZM11.4072 16.8997L11.9724 18.0147L11.9818 18.0098L11.4072 16.8997ZM15.5952 16.8997L15.0206 18.0098L15.0307 18.0149L15.5952 16.8997ZM19.7946 19.0252L20.4284 17.9478C20.4057 17.9345 20.3826 17.9219 20.3591 17.91L19.7946 19.0252ZM21.7112 22.5423L20.4623 22.4909C20.4616 22.508 20.4612 22.5252 20.4612 22.5423H21.7112ZM20.4612 28.4169C20.4612 29.1073 21.0209 29.6669 21.7112 29.6669C22.4016 29.6669 22.9612 29.1073 22.9612 28.4169H20.4612ZM22.9612 1.5835C22.9612 0.89314 22.4015 0.333496 21.7112 0.333496C21.0208 0.333496 20.4612 0.89314 20.4612 1.5835H22.9612ZM21.7112 8.29183H20.4612C20.4612 8.30897 20.4615 8.32611 20.4622 8.34323L21.7112 8.29183ZM19.7945 11.8089L20.3596 12.9239C20.3829 12.9121 20.4058 12.8996 20.4283 12.8863L19.7945 11.8089ZM15.5932 13.9383L15.028 12.8233L15.0186 12.8282L15.5932 13.9383ZM11.4052 13.9383L11.9798 12.8281L11.9706 12.8235L11.4052 13.9383ZM7.20582 11.8089L6.57204 12.8863C6.59446 12.8995 6.6173 12.912 6.6405 12.9238L7.20582 11.8089ZM5.28916 8.29183L6.5381 8.34323C6.5388 8.32611 6.53916 8.30897 6.53916 8.29183H5.28916ZM6.53916 1.5835C6.53916 0.89314 5.97951 0.333496 5.28916 0.333496C4.5988 0.333496 4.03916 0.89314 4.03916 1.5835H6.53916ZM21.717 0.333496C21.0266 0.333496 20.467 0.89314 20.467 1.5835C20.467 2.27385 21.0266 2.8335 21.717 2.8335V0.333496ZM25.0002 2.8335C25.6906 2.8335 26.2502 2.27385 26.2502 1.5835C26.2502 0.89314 25.6906 0.333496 25.0002 0.333496V2.8335ZM21.7146 2.8335C22.4049 2.8335 22.9646 2.27385 22.9646 1.5835C22.9646 0.89314 22.4049 0.333496 21.7146 0.333496V2.8335ZM5.28491 0.333496C4.59456 0.333496 4.03491 0.89314 4.03491 1.5835C4.03491 2.27385 4.59456 2.8335 5.28491 2.8335V0.333496ZM5.28517 2.8335C5.97552 2.8335 6.53517 2.27385 6.53517 1.5835C6.53517 0.89314 5.97552 0.333496 5.28517 0.333496V2.8335ZM2 0.333496C1.30964 0.333496 0.75 0.89314 0.75 1.5835C0.75 2.27385 1.30964 2.8335 2 2.8335V0.333496ZM10.845 8.17049C10.2487 7.82259 9.4833 8.02396 9.13541 8.62025C8.78752 9.21654 8.98888 9.98195 9.58517 10.3298L10.845 8.17049ZM13.5003 11.1668L12.8703 12.2465C13.2596 12.4736 13.7409 12.4736 14.1302 12.2465L13.5003 11.1668ZM17.4153 10.3298C18.0116 9.98195 18.213 9.21654 17.8651 8.62025C17.5172 8.02396 16.7518 7.82259 16.1555 8.17049L17.4153 10.3298ZM25 27.1668H2V29.6668H25V27.1668ZM6.53541 28.4169V22.5481H4.03541V28.4169H6.53541ZM6.53435 22.4967C6.49422 21.5214 6.99454 20.6033 7.83586 20.1084L6.56829 17.9536C4.93166 18.9163 3.95839 20.7023 4.03647 22.5995L6.53435 22.4967ZM7.76719 20.146L11.9724 18.0146L10.8421 15.7847L6.63697 17.916L7.76719 20.146ZM11.9818 18.0098C12.9347 17.5166 14.0677 17.5166 15.0206 18.0098L16.1697 15.7895C14.4961 14.9234 12.5063 14.9234 10.8327 15.7895L11.9818 18.0098ZM15.0307 18.0149L19.2301 20.1405L20.3591 17.91L16.1597 15.7844L15.0307 18.0149ZM19.1608 20.1026C20.0021 20.5976 20.5024 21.5156 20.4623 22.4909L22.9602 22.5937C23.0383 20.6965 22.065 18.9106 20.4284 17.9478L19.1608 20.1026ZM20.4612 22.5423V28.4169H22.9612V22.5423H20.4612ZM20.4612 1.5835V8.29183H22.9612V1.5835H20.4612ZM20.4622 8.34323C20.5023 9.3185 20.002 10.2366 19.1607 10.7315L20.4283 12.8863C22.0649 11.9236 23.0382 10.1376 22.9601 8.24043L20.4622 8.34323ZM19.2294 10.6939L15.028 12.8234L16.1583 15.0533L20.3596 12.9239L19.2294 10.6939ZM15.0186 12.8282C14.0657 13.3213 12.9327 13.3213 11.9798 12.8282L10.8307 15.0485C12.5043 15.9146 14.4941 15.9146 16.1677 15.0485L15.0186 12.8282ZM11.9706 12.8235L7.77114 10.6941L6.6405 12.9238L10.8399 15.0532L11.9706 12.8235ZM7.83961 10.7315C6.99828 10.2366 6.49796 9.3185 6.5381 8.34323L4.04021 8.24043C3.96213 10.1376 4.93541 11.9236 6.57204 12.8863L7.83961 10.7315ZM6.53916 8.29183V1.5835H4.03916V8.29183H6.53916ZM21.717 2.8335H25.0002V0.333496H21.717V2.8335ZM21.7146 0.333496H5.28491V2.8335H21.7146V0.333496ZM5.28517 0.333496H2V2.8335H5.28517V0.333496ZM9.58517 10.3298L12.8703 12.2465L14.1302 10.0872L10.845 8.17049L9.58517 10.3298ZM14.1302 12.2465L17.4153 10.3298L16.1555 8.17049L12.8703 10.0872L14.1302 12.2465Z" fill="white"/>
</svg>
