<svg width="12" height="16" viewBox="0 0 12 16" fill="none" xmlns="http://www.w3.org/2000/svg">
<path fill-rule="evenodd" clip-rule="evenodd" d="M10.167 5H1.833C1.37295 5 1 5.37295 1 5.833V12.5C1 13.8807 2.11929 15 3.5 15H8.5C9.16304 15 9.79893 14.7366 10.2678 14.2678C10.7366 13.7989 11 13.163 11 12.5V5.833C11 5.37295 10.6271 5 10.167 5Z" stroke="black" stroke-width="1.5" stroke-linecap="round" stroke-linejoin="round"/>
<path fill-rule="evenodd" clip-rule="evenodd" d="M9 3L8.276 1.553C8.10674 1.21427 7.76067 1.0002 7.382 1H4.618C4.23933 1.0002 3.89326 1.21427 3.724 1.553L3 3H9Z" stroke="black" stroke-width="1.5" stroke-linecap="round" stroke-linejoin="round"/>
<path d="M5.083 8.333C5.083 7.91879 4.74721 7.583 4.333 7.583C3.91879 7.583 3.583 7.91879 3.583 8.333H5.083ZM3.583 11.666C3.583 12.0802 3.91879 12.416 4.333 12.416C4.74721 12.416 5.083 12.0802 5.083 11.666H3.583ZM8.417 8.333C8.417 7.91879 8.08121 7.583 7.667 7.583C7.25279 7.583 6.917 7.91879 6.917 8.333H8.417ZM6.917 11.666C6.917 12.0802 7.25279 12.416 7.667 12.416C8.08121 12.416 8.417 12.0802 8.417 11.666H6.917ZM9 2.25C8.58579 2.25 8.25 2.58579 8.25 3C8.25 3.41421 8.58579 3.75 9 3.75V2.25ZM11 3.75C11.4142 3.75 11.75 3.41421 11.75 3C11.75 2.58579 11.4142 2.25 11 2.25V3.75ZM3 3.75C3.41421 3.75 3.75 3.41421 3.75 3C3.75 2.58579 3.41421 2.25 3 2.25V3.75ZM1 2.25C0.585786 2.25 0.25 2.58579 0.25 3C0.25 3.41421 0.585786 3.75 1 3.75V2.25ZM3.583 8.333V11.666H5.083V8.333H3.583ZM6.917 8.333V11.666H8.417V8.333H6.917ZM9 3.75H11V2.25H9V3.75ZM3 2.25H1V3.75H3V2.25Z" fill="black"/>
</svg>
