<svg width="11" height="14" viewBox="0 0 11 14" fill="none" xmlns="http://www.w3.org/2000/svg">
<path fill-rule="evenodd" clip-rule="evenodd" d="M8.85743 4.42847H1.714C1.31967 4.42847 1 4.74814 1 5.14247V10.857C1 12.0405 1.95939 12.9999 3.14286 12.9999H7.42857C7.99689 12.9999 8.54194 12.7741 8.9438 12.3723C9.34566 11.9704 9.57143 11.4254 9.57143 10.857V5.14247C9.57143 4.74814 9.25176 4.42847 8.85743 4.42847Z" stroke="black" stroke-linecap="round" stroke-linejoin="round"/>
<path fill-rule="evenodd" clip-rule="evenodd" d="M7.8577 2.71429L7.23713 1.474C7.09205 1.18366 6.79541 1.00017 6.47084 1H4.1017C3.77713 1.00017 3.4805 1.18366 3.33542 1.474L2.71484 2.71429H7.8577Z" stroke="black" stroke-linecap="round" stroke-linejoin="round"/>
<path d="M4.35687 7.28545C4.35687 7.00931 4.13302 6.78545 3.85687 6.78545C3.58073 6.78545 3.35687 7.00931 3.35687 7.28545H4.35687ZM3.35687 10.1423C3.35687 10.4185 3.58073 10.6423 3.85687 10.6423C4.13302 10.6423 4.35687 10.4185 4.35687 10.1423H3.35687ZM7.21457 7.28545C7.21457 7.00931 6.99072 6.78545 6.71457 6.78545C6.43843 6.78545 6.21457 7.00931 6.21457 7.28545H7.21457ZM6.21457 10.1423C6.21457 10.4185 6.43843 10.6423 6.71457 10.6423C6.99072 10.6423 7.21457 10.4185 7.21457 10.1423H6.21457ZM7.85715 2.2143C7.58101 2.2143 7.35715 2.43816 7.35715 2.7143C7.35715 2.99045 7.58101 3.2143 7.85715 3.2143V2.2143ZM9.57144 3.2143C9.84758 3.2143 10.0714 2.99045 10.0714 2.7143C10.0714 2.43816 9.84758 2.2143 9.57144 2.2143V3.2143ZM2.71429 3.2143C2.99044 3.2143 3.21429 2.99045 3.21429 2.7143C3.21429 2.43816 2.99044 2.2143 2.71429 2.2143V3.2143ZM1.00001 2.2143C0.723866 2.2143 0.500009 2.43816 0.500009 2.7143C0.500009 2.99045 0.723866 3.2143 1.00001 3.2143V2.2143ZM3.35687 7.28545V10.1423H4.35687V7.28545H3.35687ZM6.21457 7.28545V10.1423H7.21457V7.28545H6.21457ZM7.85715 3.2143H9.57144V2.2143H7.85715V3.2143ZM2.71429 2.2143H1.00001V3.2143H2.71429V2.2143Z" fill="black"/>
</svg>
