<svg width="14" height="16" viewBox="0 0 14 16" fill="none" xmlns="http://www.w3.org/2000/svg">
<path fill-rule="evenodd" clip-rule="evenodd" d="M9.47694 10H4.52294C3.06488 10.0724 1.7731 10.963 1.18693 12.3C0.479935 13.688 1.89093 15 3.53193 15H10.4679C12.1099 15 13.5209 13.688 12.8129 12.3C12.2268 10.963 10.935 10.0724 9.47694 10Z" stroke="black" stroke-width="1.5" stroke-linecap="round" stroke-linejoin="round"/>
<path fill-rule="evenodd" clip-rule="evenodd" d="M9.99994 4C9.99994 5.65685 8.65679 7 6.99994 7C5.34308 7 3.99994 5.65685 3.99994 4C3.99994 2.34315 5.34308 1 6.99994 1C7.79559 1 8.55865 1.31607 9.12126 1.87868C9.68387 2.44129 9.99994 3.20435 9.99994 4Z" stroke="black" stroke-width="1.5" stroke-linecap="round" stroke-linejoin="round"/>
</svg>
